<svg width="1106" height="1111" viewBox="0 0 1106 1111" fill="none" xmlns="http://www.w3.org/2000/svg">
<circle cx="25" cy="136" r="25" fill="black"/>
<circle cx="25.131" cy="136.131" r="19.3717" fill="#FFDC82"/>
<circle cx="25.1308" cy="136.131" r="12.3037" fill="#1AC120"/>
<circle cx="25" cy="136" r="6.15183" fill="#E42430"/>
<circle cx="75" cy="36" r="25" fill="black"/>
<circle cx="75.131" cy="36.131" r="19.3717" fill="#FFDC82"/>
<circle cx="75.1308" cy="36.1308" r="12.3037" fill="#1AC120"/>
<circle cx="75" cy="36" r="6.15183" fill="#E42430"/>
<circle cx="125" cy="86" r="25" fill="black"/>
<circle cx="125.131" cy="86.131" r="19.3717" fill="#FFDC82"/>
<circle cx="125.131" cy="86.1308" r="12.3037" fill="#1AC120"/>
<circle cx="125" cy="86" r="6.15183" fill="#E42430"/>
<circle cx="175" cy="136" r="25" fill="black"/>
<circle cx="175.131" cy="136.131" r="19.3717" fill="#FFDC82"/>
<circle cx="175.131" cy="136.131" r="12.3037" fill="#1AC120"/>
<circle cx="175" cy="136" r="6.15183" fill="#E42430"/>
<circle cx="225" cy="36" r="25" fill="black"/>
<circle cx="225.131" cy="36.131" r="19.3717" fill="#FFDC82"/>
<circle cx="225.131" cy="36.1308" r="12.3037" fill="#1AC120"/>
<circle cx="225" cy="36" r="6.15183" fill="#E42430"/>
<circle cx="275" cy="86" r="25" fill="black"/>
<circle cx="275.131" cy="86.131" r="19.3717" fill="#FFDC82"/>
<circle cx="275.131" cy="86.1308" r="12.3037" fill="#1AC120"/>
<circle cx="275" cy="86" r="6.15183" fill="#E42430"/>
<circle cx="325" cy="136" r="25" fill="black"/>
<circle cx="325.131" cy="136.131" r="19.3717" fill="#FFDC82"/>
<circle cx="325.131" cy="136.131" r="12.3037" fill="#1AC120"/>
<circle cx="325" cy="136" r="6.15183" fill="#E42430"/>
<circle cx="375" cy="36" r="25" fill="black"/>
<circle cx="375.131" cy="36.131" r="19.3717" fill="#FFDC82"/>
<circle cx="375.131" cy="36.1308" r="12.3037" fill="#1AC120"/>
<circle cx="375" cy="36" r="6.15183" fill="#E42430"/>
<circle cx="425" cy="86" r="25" fill="black"/>
<circle cx="425.131" cy="86.131" r="19.3717" fill="#FFDC82"/>
<circle cx="425.131" cy="86.1308" r="12.3037" fill="#1AC120"/>
<circle cx="425" cy="86" r="6.15183" fill="#E42430"/>
<circle cx="475" cy="136" r="25" fill="black"/>
<circle cx="475.131" cy="136.131" r="19.3717" fill="#FFDC82"/>
<circle cx="475.131" cy="136.131" r="12.3037" fill="#1AC120"/>
<circle cx="475" cy="136" r="6.15183" fill="#E42430"/>
<circle cx="25" cy="1036" r="25" fill="black"/>
<circle cx="25.131" cy="1036.13" r="19.3717" fill="#FFDC82"/>
<circle cx="25.1308" cy="1036.13" r="12.3037" fill="#1AC120"/>
<circle cx="25" cy="1036" r="6.15183" fill="#E42430"/>
<circle cx="75" cy="1086" r="25" fill="black"/>
<circle cx="75.131" cy="1086.13" r="19.3717" fill="#FFDC82"/>
<circle cx="75.1308" cy="1086.13" r="12.3037" fill="#1AC120"/>
<circle cx="75" cy="1086" r="6.15183" fill="#E42430"/>
<circle cx="25" cy="886" r="25" fill="black"/>
<circle cx="25.131" cy="886.131" r="19.3717" fill="#FFDC82"/>
<circle cx="25.1308" cy="886.131" r="12.3037" fill="#1AC120"/>
<circle cx="25" cy="886" r="6.15183" fill="#E42430"/>
<circle cx="75" cy="936" r="25" fill="black"/>
<circle cx="75.131" cy="936.131" r="19.3717" fill="#FFDC82"/>
<circle cx="75.1308" cy="936.131" r="12.3037" fill="#1AC120"/>
<circle cx="75" cy="936" r="6.15183" fill="#E42430"/>
<circle cx="125" cy="986" r="25" fill="black"/>
<circle cx="125.131" cy="986.131" r="19.3717" fill="#FFDC82"/>
<circle cx="125.131" cy="986.131" r="12.3037" fill="#1AC120"/>
<circle cx="125" cy="986" r="6.15183" fill="#E42430"/>
<circle cx="175" cy="1036" r="25" fill="black"/>
<circle cx="175.131" cy="1036.13" r="19.3717" fill="#FFDC82"/>
<circle cx="175.131" cy="1036.13" r="12.3037" fill="#1AC120"/>
<circle cx="175" cy="1036" r="6.15183" fill="#E42430"/>
<circle cx="225" cy="1086" r="25" fill="black"/>
<circle cx="225.131" cy="1086.13" r="19.3717" fill="#FFDC82"/>
<circle cx="225.131" cy="1086.13" r="12.3037" fill="#1AC120"/>
<circle cx="225" cy="1086" r="6.15183" fill="#E42430"/>
<circle cx="25" cy="736" r="25" fill="black"/>
<circle cx="25.131" cy="736.131" r="19.3717" fill="#FFDC82"/>
<circle cx="25.1308" cy="736.131" r="12.3037" fill="#1AC120"/>
<circle cx="25" cy="736" r="6.15183" fill="#E42430"/>
<circle cx="75" cy="786" r="25" fill="black"/>
<circle cx="75.131" cy="786.131" r="19.3717" fill="#FFDC82"/>
<circle cx="75.1308" cy="786.131" r="12.3037" fill="#1AC120"/>
<circle cx="75" cy="786" r="6.15183" fill="#E42430"/>
<circle cx="125" cy="836" r="25" fill="black"/>
<circle cx="125.131" cy="836.131" r="19.3717" fill="#FFDC82"/>
<circle cx="125.131" cy="836.131" r="12.3037" fill="#1AC120"/>
<circle cx="125" cy="836" r="6.15183" fill="#E42430"/>
<circle cx="175" cy="886" r="25" fill="black"/>
<circle cx="175.131" cy="886.131" r="19.3717" fill="#FFDC82"/>
<circle cx="175.131" cy="886.131" r="12.3037" fill="#1AC120"/>
<circle cx="175" cy="886" r="6.15183" fill="#E42430"/>
<circle cx="225" cy="936" r="25" fill="black"/>
<circle cx="225.131" cy="936.131" r="19.3717" fill="#FFDC82"/>
<circle cx="225.131" cy="936.131" r="12.3037" fill="#1AC120"/>
<circle cx="225" cy="936" r="6.15183" fill="#E42430"/>
<circle cx="275" cy="986" r="25" fill="black"/>
<circle cx="275.131" cy="986.131" r="19.3717" fill="#FFDC82"/>
<circle cx="275.131" cy="986.131" r="12.3037" fill="#1AC120"/>
<circle cx="275" cy="986" r="6.15183" fill="#E42430"/>
<circle cx="325" cy="1036" r="25" fill="black"/>
<circle cx="325.131" cy="1036.13" r="19.3717" fill="#FFDC82"/>
<circle cx="325.131" cy="1036.13" r="12.3037" fill="#1AC120"/>
<circle cx="325" cy="1036" r="6.15183" fill="#E42430"/>
<circle cx="375" cy="1086" r="25" fill="black"/>
<circle cx="375.131" cy="1086.13" r="19.3717" fill="#FFDC82"/>
<circle cx="375.131" cy="1086.13" r="12.3037" fill="#1AC120"/>
<circle cx="375" cy="1086" r="6.15183" fill="#E42430"/>
<circle cx="25" cy="586" r="25" fill="black"/>
<circle cx="25.131" cy="586.131" r="19.3717" fill="#FFDC82"/>
<circle cx="25.1308" cy="586.131" r="12.3037" fill="#1AC120"/>
<circle cx="25" cy="586" r="6.15183" fill="#E42430"/>
<circle cx="75" cy="636" r="25" fill="black"/>
<circle cx="75.131" cy="636.131" r="19.3717" fill="#FFDC82"/>
<circle cx="75.1308" cy="636.131" r="12.3037" fill="#1AC120"/>
<circle cx="75" cy="636" r="6.15183" fill="#E42430"/>
<circle cx="125" cy="686" r="25" fill="black"/>
<circle cx="125.131" cy="686.131" r="19.3717" fill="#FFDC82"/>
<circle cx="125.131" cy="686.131" r="12.3037" fill="#1AC120"/>
<circle cx="125" cy="686" r="6.15183" fill="#E42430"/>
<circle cx="175" cy="736" r="25" fill="black"/>
<circle cx="175.131" cy="736.131" r="19.3717" fill="#FFDC82"/>
<circle cx="175.131" cy="736.131" r="12.3037" fill="#1AC120"/>
<circle cx="175" cy="736" r="6.15183" fill="#E42430"/>
<circle cx="225" cy="786" r="25" fill="black"/>
<circle cx="225.131" cy="786.131" r="19.3717" fill="#FFDC82"/>
<circle cx="225.131" cy="786.131" r="12.3037" fill="#1AC120"/>
<circle cx="225" cy="786" r="6.15183" fill="#E42430"/>
<circle cx="275" cy="836" r="25" fill="black"/>
<circle cx="275.131" cy="836.131" r="19.3717" fill="#FFDC82"/>
<circle cx="275.131" cy="836.131" r="12.3037" fill="#1AC120"/>
<circle cx="275" cy="836" r="6.15183" fill="#E42430"/>
<circle cx="325" cy="886" r="25" fill="black"/>
<circle cx="325.131" cy="886.131" r="19.3717" fill="#FFDC82"/>
<circle cx="325.131" cy="886.131" r="12.3037" fill="#1AC120"/>
<circle cx="325" cy="886" r="6.15183" fill="#E42430"/>
<circle cx="375" cy="936" r="25" fill="black"/>
<circle cx="375.131" cy="936.131" r="19.3717" fill="#FFDC82"/>
<circle cx="375.131" cy="936.131" r="12.3037" fill="#1AC120"/>
<circle cx="375" cy="936" r="6.15183" fill="#E42430"/>
<circle cx="425" cy="986" r="25" fill="black"/>
<circle cx="425.131" cy="986.131" r="19.3717" fill="#FFDC82"/>
<circle cx="425.131" cy="986.131" r="12.3037" fill="#1AC120"/>
<circle cx="425" cy="986" r="6.15183" fill="#E42430"/>
<circle cx="475" cy="1036" r="25" fill="black"/>
<circle cx="475.131" cy="1036.13" r="19.3717" fill="#FFDC82"/>
<circle cx="475.131" cy="1036.13" r="12.3037" fill="#1AC120"/>
<circle cx="475" cy="1036" r="6.15183" fill="#E42430"/>
<circle cx="525" cy="1086" r="25" fill="black"/>
<circle cx="525.131" cy="1086.13" r="19.3717" fill="#FFDC82"/>
<circle cx="525.131" cy="1086.13" r="12.3037" fill="#1AC120"/>
<circle cx="525" cy="1086" r="6.15183" fill="#E42430"/>
<circle cx="25" cy="436" r="25" fill="black"/>
<circle cx="25.131" cy="436.131" r="19.3717" fill="#FFDC82"/>
<circle cx="25.1308" cy="436.131" r="12.3037" fill="#1AC120"/>
<circle cx="25" cy="436" r="6.15183" fill="#E42430"/>
<circle cx="75" cy="486" r="25" fill="black"/>
<circle cx="75.131" cy="486.131" r="19.3717" fill="#FFDC82"/>
<circle cx="75.1308" cy="486.131" r="12.3037" fill="#1AC120"/>
<circle cx="75" cy="486" r="6.15183" fill="#E42430"/>
<circle cx="125" cy="536" r="25" fill="black"/>
<circle cx="125.131" cy="536.131" r="19.3717" fill="#FFDC82"/>
<circle cx="125.131" cy="536.131" r="12.3037" fill="#1AC120"/>
<circle cx="125" cy="536" r="6.15183" fill="#E42430"/>
<circle cx="175" cy="586" r="25" fill="black"/>
<circle cx="175.131" cy="586.131" r="19.3717" fill="#FFDC82"/>
<circle cx="175.131" cy="586.131" r="12.3037" fill="#1AC120"/>
<circle cx="175" cy="586" r="6.15183" fill="#E42430"/>
<circle cx="225" cy="636" r="25" fill="black"/>
<circle cx="225.131" cy="636.131" r="19.3717" fill="#FFDC82"/>
<circle cx="225.131" cy="636.131" r="12.3037" fill="#1AC120"/>
<circle cx="225" cy="636" r="6.15183" fill="#E42430"/>
<circle cx="275" cy="686" r="25" fill="black"/>
<circle cx="275.131" cy="686.131" r="19.3717" fill="#FFDC82"/>
<circle cx="275.131" cy="686.131" r="12.3037" fill="#1AC120"/>
<circle cx="275" cy="686" r="6.15183" fill="#E42430"/>
<circle cx="325" cy="736" r="25" fill="black"/>
<circle cx="325.131" cy="736.131" r="19.3717" fill="#FFDC82"/>
<circle cx="325.131" cy="736.131" r="12.3037" fill="#1AC120"/>
<circle cx="325" cy="736" r="6.15183" fill="#E42430"/>
<circle cx="375" cy="786" r="25" fill="black"/>
<circle cx="375.131" cy="786.131" r="19.3717" fill="#FFDC82"/>
<circle cx="375.131" cy="786.131" r="12.3037" fill="#1AC120"/>
<circle cx="375" cy="786" r="6.15183" fill="#E42430"/>
<circle cx="425" cy="836" r="25" fill="black"/>
<circle cx="425.131" cy="836.131" r="19.3717" fill="#FFDC82"/>
<circle cx="425.131" cy="836.131" r="12.3037" fill="#1AC120"/>
<circle cx="425" cy="836" r="6.15183" fill="#E42430"/>
<circle cx="475" cy="886" r="25" fill="black"/>
<circle cx="475.131" cy="886.131" r="19.3717" fill="#FFDC82"/>
<circle cx="475.131" cy="886.131" r="12.3037" fill="#1AC120"/>
<circle cx="475" cy="886" r="6.15183" fill="#E42430"/>
<circle cx="525" cy="936" r="25" fill="black"/>
<circle cx="525.131" cy="936.131" r="19.3717" fill="#FFDC82"/>
<circle cx="525.131" cy="936.131" r="12.3037" fill="#1AC120"/>
<circle cx="525" cy="936" r="6.15183" fill="#E42430"/>
<circle cx="575" cy="986" r="25" fill="black"/>
<circle cx="575.131" cy="986.131" r="19.3717" fill="#FFDC82"/>
<circle cx="575.131" cy="986.131" r="12.3037" fill="#1AC120"/>
<circle cx="575" cy="986" r="6.15183" fill="#E42430"/>
<circle cx="625" cy="1036" r="25" fill="black"/>
<circle cx="625.131" cy="1036.13" r="19.3717" fill="#FFDC82"/>
<circle cx="625.131" cy="1036.13" r="12.3037" fill="#1AC120"/>
<circle cx="625" cy="1036" r="6.15183" fill="#E42430"/>
<circle cx="675" cy="1086" r="25" fill="black"/>
<circle cx="675.131" cy="1086.13" r="19.3717" fill="#FFDC82"/>
<circle cx="675.131" cy="1086.13" r="12.3037" fill="#1AC120"/>
<circle cx="675" cy="1086" r="6.15183" fill="#E42430"/>
<circle cx="25" cy="286" r="25" fill="black"/>
<circle cx="25.131" cy="286.131" r="19.3717" fill="#FFDC82"/>
<circle cx="25.1308" cy="286.131" r="12.3037" fill="#1AC120"/>
<circle cx="25" cy="286" r="6.15183" fill="#E42430"/>
<circle cx="75" cy="336" r="25" fill="black"/>
<circle cx="75.131" cy="336.131" r="19.3717" fill="#FFDC82"/>
<circle cx="75.1308" cy="336.131" r="12.3037" fill="#1AC120"/>
<circle cx="75" cy="336" r="6.15183" fill="#E42430"/>
<circle cx="125" cy="386" r="25" fill="black"/>
<circle cx="125.131" cy="386.131" r="19.3717" fill="#FFDC82"/>
<circle cx="125.131" cy="386.131" r="12.3037" fill="#1AC120"/>
<circle cx="125" cy="386" r="6.15183" fill="#E42430"/>
<circle cx="175" cy="436" r="25" fill="black"/>
<circle cx="175.131" cy="436.131" r="19.3717" fill="#FFDC82"/>
<circle cx="175.131" cy="436.131" r="12.3037" fill="#1AC120"/>
<circle cx="175" cy="436" r="6.15183" fill="#E42430"/>
<circle cx="225" cy="486" r="25" fill="black"/>
<circle cx="225.131" cy="486.131" r="19.3717" fill="#FFDC82"/>
<circle cx="225.131" cy="486.131" r="12.3037" fill="#1AC120"/>
<circle cx="225" cy="486" r="6.15183" fill="#E42430"/>
<circle cx="275" cy="536" r="25" fill="black"/>
<circle cx="275.131" cy="536.131" r="19.3717" fill="#FFDC82"/>
<circle cx="275.131" cy="536.131" r="12.3037" fill="#1AC120"/>
<circle cx="275" cy="536" r="6.15183" fill="#E42430"/>
<circle cx="325" cy="586" r="25" fill="black"/>
<circle cx="325.131" cy="586.131" r="19.3717" fill="#FFDC82"/>
<circle cx="325.131" cy="586.131" r="12.3037" fill="#1AC120"/>
<circle cx="325" cy="586" r="6.15183" fill="#E42430"/>
<circle cx="375" cy="636" r="25" fill="black"/>
<circle cx="375.131" cy="636.131" r="19.3717" fill="#FFDC82"/>
<circle cx="375.131" cy="636.131" r="12.3037" fill="#1AC120"/>
<circle cx="375" cy="636" r="6.15183" fill="#E42430"/>
<circle cx="425" cy="686" r="25" fill="black"/>
<circle cx="425.131" cy="686.131" r="19.3717" fill="#FFDC82"/>
<circle cx="425.131" cy="686.131" r="12.3037" fill="#1AC120"/>
<circle cx="425" cy="686" r="6.15183" fill="#E42430"/>
<circle cx="475" cy="736" r="25" fill="black"/>
<circle cx="475.131" cy="736.131" r="19.3717" fill="#FFDC82"/>
<circle cx="475.131" cy="736.131" r="12.3037" fill="#1AC120"/>
<circle cx="475" cy="736" r="6.15183" fill="#E42430"/>
<circle cx="525" cy="786" r="25" fill="black"/>
<circle cx="525.131" cy="786.131" r="19.3717" fill="#FFDC82"/>
<circle cx="525.131" cy="786.131" r="12.3037" fill="#1AC120"/>
<circle cx="525" cy="786" r="6.15183" fill="#E42430"/>
<circle cx="575" cy="836" r="25" fill="black"/>
<circle cx="575.131" cy="836.131" r="19.3717" fill="#FFDC82"/>
<circle cx="575.131" cy="836.131" r="12.3037" fill="#1AC120"/>
<circle cx="575" cy="836" r="6.15183" fill="#E42430"/>
<circle cx="625" cy="886" r="25" fill="black"/>
<circle cx="625.131" cy="886.131" r="19.3717" fill="#FFDC82"/>
<circle cx="625.131" cy="886.131" r="12.3037" fill="#1AC120"/>
<circle cx="625" cy="886" r="6.15183" fill="#E42430"/>
<circle cx="675" cy="936" r="25" fill="black"/>
<circle cx="675.131" cy="936.131" r="19.3717" fill="#FFDC82"/>
<circle cx="675.131" cy="936.131" r="12.3037" fill="#1AC120"/>
<circle cx="675" cy="936" r="6.15183" fill="#E42430"/>
<circle cx="725" cy="986" r="25" fill="black"/>
<circle cx="725.131" cy="986.131" r="19.3717" fill="#FFDC82"/>
<circle cx="725.131" cy="986.131" r="12.3037" fill="#1AC120"/>
<circle cx="725" cy="986" r="6.15183" fill="#E42430"/>
<circle cx="775" cy="1036" r="25" fill="black"/>
<circle cx="775.131" cy="1036.13" r="19.3717" fill="#FFDC82"/>
<circle cx="775.131" cy="1036.13" r="12.3037" fill="#1AC120"/>
<circle cx="775" cy="1036" r="6.15183" fill="#E42430"/>
<circle cx="825" cy="1086" r="25" fill="black"/>
<circle cx="825.131" cy="1086.13" r="19.3717" fill="#FFDC82"/>
<circle cx="825.131" cy="1086.13" r="12.3037" fill="#1AC120"/>
<circle cx="825" cy="1086" r="6.15183" fill="#E42430"/>
<circle cx="75" cy="186" r="25" fill="black"/>
<circle cx="75.131" cy="186.131" r="19.3717" fill="#FFDC82"/>
<circle cx="75.1308" cy="186.131" r="12.3037" fill="#1AC120"/>
<circle cx="75" cy="186" r="6.15183" fill="#E42430"/>
<circle cx="125" cy="236" r="25" fill="black"/>
<circle cx="125.131" cy="236.131" r="19.3717" fill="#FFDC82"/>
<circle cx="125.131" cy="236.131" r="12.3037" fill="#1AC120"/>
<circle cx="125" cy="236" r="6.15183" fill="#E42430"/>
<circle cx="175" cy="286" r="25" fill="black"/>
<circle cx="175.131" cy="286.131" r="19.3717" fill="#FFDC82"/>
<circle cx="175.131" cy="286.131" r="12.3037" fill="#1AC120"/>
<circle cx="175" cy="286" r="6.15183" fill="#E42430"/>
<circle cx="225" cy="336" r="25" fill="black"/>
<circle cx="225.131" cy="336.131" r="19.3717" fill="#FFDC82"/>
<circle cx="225.131" cy="336.131" r="12.3037" fill="#1AC120"/>
<circle cx="225" cy="336" r="6.15183" fill="#E42430"/>
<circle cx="275" cy="386" r="25" fill="black"/>
<circle cx="275.131" cy="386.131" r="19.3717" fill="#FFDC82"/>
<circle cx="275.131" cy="386.131" r="12.3037" fill="#1AC120"/>
<circle cx="275" cy="386" r="6.15183" fill="#E42430"/>
<circle cx="325" cy="436" r="25" fill="black"/>
<circle cx="325.131" cy="436.131" r="19.3717" fill="#FFDC82"/>
<circle cx="325.131" cy="436.131" r="12.3037" fill="#1AC120"/>
<circle cx="325" cy="436" r="6.15183" fill="#E42430"/>
<circle cx="375" cy="486" r="25" fill="black"/>
<circle cx="375.131" cy="486.131" r="19.3717" fill="#FFDC82"/>
<circle cx="375.131" cy="486.131" r="12.3037" fill="#1AC120"/>
<circle cx="375" cy="486" r="6.15183" fill="#E42430"/>
<circle cx="425" cy="536" r="25" fill="black"/>
<circle cx="425.131" cy="536.131" r="19.3717" fill="#FFDC82"/>
<circle cx="425.131" cy="536.131" r="12.3037" fill="#1AC120"/>
<circle cx="425" cy="536" r="6.15183" fill="#E42430"/>
<circle cx="475" cy="586" r="25" fill="black"/>
<circle cx="475.131" cy="586.131" r="19.3717" fill="#FFDC82"/>
<circle cx="475.131" cy="586.131" r="12.3037" fill="#1AC120"/>
<circle cx="475" cy="586" r="6.15183" fill="#E42430"/>
<circle cx="525" cy="636" r="25" fill="black"/>
<circle cx="525.131" cy="636.131" r="19.3717" fill="#FFDC82"/>
<circle cx="525.131" cy="636.131" r="12.3037" fill="#1AC120"/>
<circle cx="525" cy="636" r="6.15183" fill="#E42430"/>
<circle cx="575" cy="686" r="25" fill="black"/>
<circle cx="575.131" cy="686.131" r="19.3717" fill="#FFDC82"/>
<circle cx="575.131" cy="686.131" r="12.3037" fill="#1AC120"/>
<circle cx="575" cy="686" r="6.15183" fill="#E42430"/>
<circle cx="625" cy="736" r="25" fill="black"/>
<circle cx="625.131" cy="736.131" r="19.3717" fill="#FFDC82"/>
<circle cx="625.131" cy="736.131" r="12.3037" fill="#1AC120"/>
<circle cx="625" cy="736" r="6.15183" fill="#E42430"/>
<circle cx="675" cy="786" r="25" fill="black"/>
<circle cx="675.131" cy="786.131" r="19.3717" fill="#FFDC82"/>
<circle cx="675.131" cy="786.131" r="12.3037" fill="#1AC120"/>
<circle cx="675" cy="786" r="6.15183" fill="#E42430"/>
<circle cx="725" cy="836" r="25" fill="black"/>
<circle cx="725.131" cy="836.131" r="19.3717" fill="#FFDC82"/>
<circle cx="725.131" cy="836.131" r="12.3037" fill="#1AC120"/>
<circle cx="725" cy="836" r="6.15183" fill="#E42430"/>
<circle cx="775" cy="886" r="25" fill="black"/>
<circle cx="775.131" cy="886.131" r="19.3717" fill="#FFDC82"/>
<circle cx="775.131" cy="886.131" r="12.3037" fill="#1AC120"/>
<circle cx="775" cy="886" r="6.15183" fill="#E42430"/>
<circle cx="825" cy="936" r="25" fill="black"/>
<circle cx="825.131" cy="936.131" r="19.3717" fill="#FFDC82"/>
<circle cx="825.131" cy="936.131" r="12.3037" fill="#1AC120"/>
<circle cx="825" cy="936" r="6.15183" fill="#E42430"/>
<circle cx="875" cy="986" r="25" fill="black"/>
<circle cx="875.131" cy="986.131" r="19.3717" fill="#FFDC82"/>
<circle cx="875.131" cy="986.131" r="12.3037" fill="#1AC120"/>
<circle cx="875" cy="986" r="6.15183" fill="#E42430"/>
<circle cx="925" cy="1036" r="25" fill="black"/>
<circle cx="925.131" cy="1036.13" r="19.3717" fill="#FFDC82"/>
<circle cx="925.131" cy="1036.13" r="12.3037" fill="#1AC120"/>
<circle cx="925" cy="1036" r="6.15183" fill="#E42430"/>
<circle cx="975" cy="1086" r="25" fill="black"/>
<circle cx="975.131" cy="1086.13" r="19.3717" fill="#FFDC82"/>
<circle cx="975.131" cy="1086.13" r="12.3037" fill="#1AC120"/>
<circle cx="975" cy="1086" r="6.15183" fill="#E42430"/>
<circle cx="225" cy="186" r="25" fill="black"/>
<circle cx="225.131" cy="186.131" r="19.3717" fill="#FFDC82"/>
<circle cx="225.131" cy="186.131" r="12.3037" fill="#1AC120"/>
<circle cx="225" cy="186" r="6.15183" fill="#E42430"/>
<circle cx="275" cy="236" r="25" fill="black"/>
<circle cx="275.131" cy="236.131" r="19.3717" fill="#FFDC82"/>
<circle cx="275.131" cy="236.131" r="12.3037" fill="#1AC120"/>
<circle cx="275" cy="236" r="6.15183" fill="#E42430"/>
<circle cx="325" cy="286" r="25" fill="black"/>
<circle cx="325.131" cy="286.131" r="19.3717" fill="#FFDC82"/>
<circle cx="325.131" cy="286.131" r="12.3037" fill="#1AC120"/>
<circle cx="325" cy="286" r="6.15183" fill="#E42430"/>
<circle cx="375" cy="336" r="25" fill="black"/>
<circle cx="375.131" cy="336.131" r="19.3717" fill="#FFDC82"/>
<circle cx="375.131" cy="336.131" r="12.3037" fill="#1AC120"/>
<circle cx="375" cy="336" r="6.15183" fill="#E42430"/>
<circle cx="425" cy="386" r="25" fill="black"/>
<circle cx="425.131" cy="386.131" r="19.3717" fill="#FFDC82"/>
<circle cx="425.131" cy="386.131" r="12.3037" fill="#1AC120"/>
<circle cx="425" cy="386" r="6.15183" fill="#E42430"/>
<circle cx="475" cy="436" r="25" fill="black"/>
<circle cx="475.131" cy="436.131" r="19.3717" fill="#FFDC82"/>
<circle cx="475.131" cy="436.131" r="12.3037" fill="#1AC120"/>
<circle cx="475" cy="436" r="6.15183" fill="#E42430"/>
<circle cx="525" cy="486" r="25" fill="black"/>
<circle cx="525.131" cy="486.131" r="19.3717" fill="#FFDC82"/>
<circle cx="525.131" cy="486.131" r="12.3037" fill="#1AC120"/>
<circle cx="525" cy="486" r="6.15183" fill="#E42430"/>
<circle cx="575" cy="536" r="25" fill="black"/>
<circle cx="575.131" cy="536.131" r="19.3717" fill="#FFDC82"/>
<circle cx="575.131" cy="536.131" r="12.3037" fill="#1AC120"/>
<circle cx="575" cy="536" r="6.15183" fill="#E42430"/>
<circle cx="625" cy="586" r="25" fill="black"/>
<circle cx="625.131" cy="586.131" r="19.3717" fill="#FFDC82"/>
<circle cx="625.131" cy="586.131" r="12.3037" fill="#1AC120"/>
<circle cx="625" cy="586" r="6.15183" fill="#E42430"/>
<circle cx="675" cy="636" r="25" fill="black"/>
<circle cx="675.131" cy="636.131" r="19.3717" fill="#FFDC82"/>
<circle cx="675.131" cy="636.131" r="12.3037" fill="#1AC120"/>
<circle cx="675" cy="636" r="6.15183" fill="#E42430"/>
<circle cx="725" cy="686" r="25" fill="black"/>
<circle cx="725.131" cy="686.131" r="19.3717" fill="#FFDC82"/>
<circle cx="725.131" cy="686.131" r="12.3037" fill="#1AC120"/>
<circle cx="725" cy="686" r="6.15183" fill="#E42430"/>
<circle cx="775" cy="736" r="25" fill="black"/>
<circle cx="775.131" cy="736.131" r="19.3717" fill="#FFDC82"/>
<circle cx="775.131" cy="736.131" r="12.3037" fill="#1AC120"/>
<circle cx="775" cy="736" r="6.15183" fill="#E42430"/>
<circle cx="825" cy="786" r="25" fill="black"/>
<circle cx="825.131" cy="786.131" r="19.3717" fill="#FFDC82"/>
<circle cx="825.131" cy="786.131" r="12.3037" fill="#1AC120"/>
<circle cx="825" cy="786" r="6.15183" fill="#E42430"/>
<circle cx="875" cy="836" r="25" fill="black"/>
<circle cx="875.131" cy="836.131" r="19.3717" fill="#FFDC82"/>
<circle cx="875.131" cy="836.131" r="12.3037" fill="#1AC120"/>
<circle cx="875" cy="836" r="6.15183" fill="#E42430"/>
<circle cx="925" cy="886" r="25" fill="black"/>
<circle cx="925.131" cy="886.131" r="19.3717" fill="#FFDC82"/>
<circle cx="925.131" cy="886.131" r="12.3037" fill="#1AC120"/>
<circle cx="925" cy="886" r="6.15183" fill="#E42430"/>
<circle cx="975" cy="936" r="25" fill="black"/>
<circle cx="975.131" cy="936.131" r="19.3717" fill="#FFDC82"/>
<circle cx="975.131" cy="936.131" r="12.3037" fill="#1AC120"/>
<circle cx="975" cy="936" r="6.15183" fill="#E42430"/>
<circle cx="1025" cy="986" r="25" fill="black"/>
<circle cx="1025.13" cy="986.131" r="19.3717" fill="#FFDC82"/>
<circle cx="1025.13" cy="986.131" r="12.3037" fill="#1AC120"/>
<circle cx="1025" cy="986" r="6.15183" fill="#E42430"/>
<circle cx="1075" cy="1036" r="25" fill="black"/>
<circle cx="1075.13" cy="1036.13" r="19.3717" fill="#FFDC82"/>
<circle cx="1075.13" cy="1036.13" r="12.3037" fill="#1AC120"/>
<circle cx="1075" cy="1036" r="6.15183" fill="#E42430"/>
<circle cx="375" cy="186" r="25" fill="black"/>
<circle cx="375.131" cy="186.131" r="19.3717" fill="#FFDC82"/>
<circle cx="375.131" cy="186.131" r="12.3037" fill="#1AC120"/>
<circle cx="375" cy="186" r="6.15183" fill="#E42430"/>
<circle cx="425" cy="236" r="25" fill="black"/>
<circle cx="425.131" cy="236.131" r="19.3717" fill="#FFDC82"/>
<circle cx="425.131" cy="236.131" r="12.3037" fill="#1AC120"/>
<circle cx="425" cy="236" r="6.15183" fill="#E42430"/>
<circle cx="475" cy="286" r="25" fill="black"/>
<circle cx="475.131" cy="286.131" r="19.3717" fill="#FFDC82"/>
<circle cx="475.131" cy="286.131" r="12.3037" fill="#1AC120"/>
<circle cx="475" cy="286" r="6.15183" fill="#E42430"/>
<circle cx="525" cy="336" r="25" fill="black"/>
<circle cx="525.131" cy="336.131" r="19.3717" fill="#FFDC82"/>
<circle cx="525.131" cy="336.131" r="12.3037" fill="#1AC120"/>
<circle cx="525" cy="336" r="6.15183" fill="#E42430"/>
<circle cx="575" cy="386" r="25" fill="black"/>
<circle cx="575.131" cy="386.131" r="19.3717" fill="#FFDC82"/>
<circle cx="575.131" cy="386.131" r="12.3037" fill="#1AC120"/>
<circle cx="575" cy="386" r="6.15183" fill="#E42430"/>
<circle cx="625" cy="436" r="25" fill="black"/>
<circle cx="625.131" cy="436.131" r="19.3717" fill="#FFDC82"/>
<circle cx="625.131" cy="436.131" r="12.3037" fill="#1AC120"/>
<circle cx="625" cy="436" r="6.15183" fill="#E42430"/>
<circle cx="675" cy="486" r="25" fill="black"/>
<circle cx="675.131" cy="486.131" r="19.3717" fill="#FFDC82"/>
<circle cx="675.131" cy="486.131" r="12.3037" fill="#1AC120"/>
<circle cx="675" cy="486" r="6.15183" fill="#E42430"/>
<circle cx="725" cy="536" r="25" fill="black"/>
<circle cx="725.131" cy="536.131" r="19.3717" fill="#FFDC82"/>
<circle cx="725.131" cy="536.131" r="12.3037" fill="#1AC120"/>
<circle cx="725" cy="536" r="6.15183" fill="#E42430"/>
<circle cx="775" cy="586" r="25" fill="black"/>
<circle cx="775.131" cy="586.131" r="19.3717" fill="#FFDC82"/>
<circle cx="775.131" cy="586.131" r="12.3037" fill="#1AC120"/>
<circle cx="775" cy="586" r="6.15183" fill="#E42430"/>
<circle cx="825" cy="636" r="25" fill="black"/>
<circle cx="825.131" cy="636.131" r="19.3717" fill="#FFDC82"/>
<circle cx="825.131" cy="636.131" r="12.3037" fill="#1AC120"/>
<circle cx="825" cy="636" r="6.15183" fill="#E42430"/>
<circle cx="875" cy="686" r="25" fill="black"/>
<circle cx="875.131" cy="686.131" r="19.3717" fill="#FFDC82"/>
<circle cx="875.131" cy="686.131" r="12.3037" fill="#1AC120"/>
<circle cx="875" cy="686" r="6.15183" fill="#E42430"/>
<circle cx="925" cy="736" r="25" fill="black"/>
<circle cx="925.131" cy="736.131" r="19.3717" fill="#FFDC82"/>
<circle cx="925.131" cy="736.131" r="12.3037" fill="#1AC120"/>
<circle cx="925" cy="736" r="6.15183" fill="#E42430"/>
<circle cx="975" cy="786" r="25" fill="black"/>
<circle cx="975.131" cy="786.131" r="19.3717" fill="#FFDC82"/>
<circle cx="975.131" cy="786.131" r="12.3037" fill="#1AC120"/>
<circle cx="975" cy="786" r="6.15183" fill="#E42430"/>
<circle cx="1025" cy="836" r="25" fill="black"/>
<circle cx="1025.13" cy="836.131" r="19.3717" fill="#FFDC82"/>
<circle cx="1025.13" cy="836.131" r="12.3037" fill="#1AC120"/>
<circle cx="1025" cy="836" r="6.15183" fill="#E42430"/>
<circle cx="1075" cy="886" r="25" fill="black"/>
<circle cx="1075.13" cy="886.131" r="19.3717" fill="#FFDC82"/>
<circle cx="1075.13" cy="886.131" r="12.3037" fill="#1AC120"/>
<circle cx="1075" cy="886" r="6.15183" fill="#E42430"/>
<circle cx="525" cy="186" r="25" fill="black"/>
<circle cx="525.131" cy="186.131" r="19.3717" fill="#FFDC82"/>
<circle cx="525.131" cy="186.131" r="12.3037" fill="#1AC120"/>
<circle cx="525" cy="186" r="6.15183" fill="#E42430"/>
<circle cx="575" cy="236" r="25" fill="black"/>
<circle cx="575.131" cy="236.131" r="19.3717" fill="#FFDC82"/>
<circle cx="575.131" cy="236.131" r="12.3037" fill="#1AC120"/>
<circle cx="575" cy="236" r="6.15183" fill="#E42430"/>
<circle cx="625" cy="286" r="25" fill="black"/>
<circle cx="625.131" cy="286.131" r="19.3717" fill="#FFDC82"/>
<circle cx="625.131" cy="286.131" r="12.3037" fill="#1AC120"/>
<circle cx="625" cy="286" r="6.15183" fill="#E42430"/>
<circle cx="675" cy="336" r="25" fill="black"/>
<circle cx="675.131" cy="336.131" r="19.3717" fill="#FFDC82"/>
<circle cx="675.131" cy="336.131" r="12.3037" fill="#1AC120"/>
<circle cx="675" cy="336" r="6.15183" fill="#E42430"/>
<circle cx="725" cy="386" r="25" fill="black"/>
<circle cx="725.131" cy="386.131" r="19.3717" fill="#FFDC82"/>
<circle cx="725.131" cy="386.131" r="12.3037" fill="#1AC120"/>
<circle cx="725" cy="386" r="6.15183" fill="#E42430"/>
<circle cx="775" cy="436" r="25" fill="black"/>
<circle cx="775.131" cy="436.131" r="19.3717" fill="#FFDC82"/>
<circle cx="775.131" cy="436.131" r="12.3037" fill="#1AC120"/>
<circle cx="775" cy="436" r="6.15183" fill="#E42430"/>
<circle cx="825" cy="486" r="25" fill="black"/>
<circle cx="825.131" cy="486.131" r="19.3717" fill="#FFDC82"/>
<circle cx="825.131" cy="486.131" r="12.3037" fill="#1AC120"/>
<circle cx="825" cy="486" r="6.15183" fill="#E42430"/>
<circle cx="875" cy="536" r="25" fill="black"/>
<circle cx="875.131" cy="536.131" r="19.3717" fill="#FFDC82"/>
<circle cx="875.131" cy="536.131" r="12.3037" fill="#1AC120"/>
<circle cx="875" cy="536" r="6.15183" fill="#E42430"/>
<circle cx="925" cy="586" r="25" fill="black"/>
<circle cx="925.131" cy="586.131" r="19.3717" fill="#FFDC82"/>
<circle cx="925.131" cy="586.131" r="12.3037" fill="#1AC120"/>
<circle cx="925" cy="586" r="6.15183" fill="#E42430"/>
<circle cx="975" cy="636" r="25" fill="black"/>
<circle cx="975.131" cy="636.131" r="19.3717" fill="#FFDC82"/>
<circle cx="975.131" cy="636.131" r="12.3037" fill="#1AC120"/>
<circle cx="975" cy="636" r="6.15183" fill="#E42430"/>
<circle cx="1025" cy="686" r="25" fill="black"/>
<circle cx="1025.13" cy="686.131" r="19.3717" fill="#FFDC82"/>
<circle cx="1025.13" cy="686.131" r="12.3037" fill="#1AC120"/>
<circle cx="1025" cy="686" r="6.15183" fill="#E42430"/>
<circle cx="1075" cy="736" r="25" fill="black"/>
<circle cx="1075.13" cy="736.131" r="19.3717" fill="#FFDC82"/>
<circle cx="1075.13" cy="736.131" r="12.3037" fill="#1AC120"/>
<circle cx="1075" cy="736" r="6.15183" fill="#E42430"/>
<circle cx="525" cy="36" r="25" fill="black"/>
<circle cx="525.131" cy="36.131" r="19.3717" fill="#FFDC82"/>
<circle cx="525.131" cy="36.1308" r="12.3037" fill="#1AC120"/>
<circle cx="525" cy="36" r="6.15183" fill="#E42430"/>
<circle cx="575" cy="86" r="25" fill="black"/>
<circle cx="575.131" cy="86.131" r="19.3717" fill="#FFDC82"/>
<circle cx="575.131" cy="86.1308" r="12.3037" fill="#1AC120"/>
<circle cx="575" cy="86" r="6.15183" fill="#E42430"/>
<circle cx="625" cy="136" r="25" fill="black"/>
<circle cx="625.131" cy="136.131" r="19.3717" fill="#FFDC82"/>
<circle cx="625.131" cy="136.131" r="12.3037" fill="#1AC120"/>
<circle cx="625" cy="136" r="6.15183" fill="#E42430"/>
<circle cx="675" cy="36" r="25" fill="black"/>
<circle cx="675.131" cy="36.131" r="19.3717" fill="#FFDC82"/>
<circle cx="675.131" cy="36.1308" r="12.3037" fill="#1AC120"/>
<circle cx="675" cy="36" r="6.15183" fill="#E42430"/>
<circle cx="725" cy="86" r="25" fill="black"/>
<circle cx="725.131" cy="86.131" r="19.3717" fill="#FFDC82"/>
<circle cx="725.131" cy="86.1308" r="12.3037" fill="#1AC120"/>
<circle cx="725" cy="86" r="6.15183" fill="#E42430"/>
<circle cx="775" cy="136" r="25" fill="black"/>
<circle cx="775.131" cy="136.131" r="19.3717" fill="#FFDC82"/>
<circle cx="775.131" cy="136.131" r="12.3037" fill="#1AC120"/>
<circle cx="775" cy="136" r="6.15183" fill="#E42430"/>
<circle cx="825" cy="36" r="25" fill="black"/>
<circle cx="825.131" cy="36.131" r="19.3717" fill="#FFDC82"/>
<circle cx="825.131" cy="36.1308" r="12.3037" fill="#1AC120"/>
<circle cx="825" cy="36" r="6.15183" fill="#E42430"/>
<circle cx="875" cy="86" r="25" fill="black"/>
<circle cx="875.131" cy="86.131" r="19.3717" fill="#FFDC82"/>
<circle cx="875.131" cy="86.1308" r="12.3037" fill="#1AC120"/>
<circle cx="875" cy="86" r="6.15183" fill="#E42430"/>
<circle cx="925" cy="136" r="25" fill="black"/>
<circle cx="925.131" cy="136.131" r="19.3717" fill="#FFDC82"/>
<circle cx="925.131" cy="136.131" r="12.3037" fill="#1AC120"/>
<circle cx="925" cy="136" r="6.15183" fill="#E42430"/>
<circle cx="975" cy="36" r="25" fill="black"/>
<circle cx="975.131" cy="36.131" r="19.3717" fill="#FFDC82"/>
<circle cx="975.131" cy="36.1308" r="12.3037" fill="#1AC120"/>
<circle cx="975" cy="36" r="6.15183" fill="#E42430"/>
<circle cx="1025" cy="86" r="25" fill="black"/>
<circle cx="1025.13" cy="86.131" r="19.3717" fill="#FFDC82"/>
<circle cx="1025.13" cy="86.1308" r="12.3037" fill="#1AC120"/>
<circle cx="1025" cy="86" r="6.15183" fill="#E42430"/>
<circle cx="1075" cy="136" r="25" fill="black"/>
<circle cx="1075.13" cy="136.131" r="19.3717" fill="#FFDC82"/>
<circle cx="1075.13" cy="136.131" r="12.3037" fill="#1AC120"/>
<circle cx="1075" cy="136" r="6.15183" fill="#E42430"/>
<circle cx="675" cy="186" r="25" fill="black"/>
<circle cx="675.131" cy="186.131" r="19.3717" fill="#FFDC82"/>
<circle cx="675.131" cy="186.131" r="12.3037" fill="#1AC120"/>
<circle cx="675" cy="186" r="6.15183" fill="#E42430"/>
<circle cx="725" cy="236" r="25" fill="black"/>
<circle cx="725.131" cy="236.131" r="19.3717" fill="#FFDC82"/>
<circle cx="725.131" cy="236.131" r="12.3037" fill="#1AC120"/>
<circle cx="725" cy="236" r="6.15183" fill="#E42430"/>
<circle cx="775" cy="286" r="25" fill="black"/>
<circle cx="775.131" cy="286.131" r="19.3717" fill="#FFDC82"/>
<circle cx="775.131" cy="286.131" r="12.3037" fill="#1AC120"/>
<circle cx="775" cy="286" r="6.15183" fill="#E42430"/>
<circle cx="825" cy="336" r="25" fill="black"/>
<circle cx="825.131" cy="336.131" r="19.3717" fill="#FFDC82"/>
<circle cx="825.131" cy="336.131" r="12.3037" fill="#1AC120"/>
<circle cx="825" cy="336" r="6.15183" fill="#E42430"/>
<circle cx="875" cy="386" r="25" fill="black"/>
<circle cx="875.131" cy="386.131" r="19.3717" fill="#FFDC82"/>
<circle cx="875.131" cy="386.131" r="12.3037" fill="#1AC120"/>
<circle cx="875" cy="386" r="6.15183" fill="#E42430"/>
<circle cx="925" cy="436" r="25" fill="black"/>
<circle cx="925.131" cy="436.131" r="19.3717" fill="#FFDC82"/>
<circle cx="925.131" cy="436.131" r="12.3037" fill="#1AC120"/>
<circle cx="925" cy="436" r="6.15183" fill="#E42430"/>
<circle cx="975" cy="486" r="25" fill="black"/>
<circle cx="975.131" cy="486.131" r="19.3717" fill="#FFDC82"/>
<circle cx="975.131" cy="486.131" r="12.3037" fill="#1AC120"/>
<circle cx="975" cy="486" r="6.15183" fill="#E42430"/>
<circle cx="1025" cy="536" r="25" fill="black"/>
<circle cx="1025.13" cy="536.131" r="19.3717" fill="#FFDC82"/>
<circle cx="1025.13" cy="536.131" r="12.3037" fill="#1AC120"/>
<circle cx="1025" cy="536" r="6.15183" fill="#E42430"/>
<circle cx="1075" cy="586" r="25" fill="black"/>
<circle cx="1075.13" cy="586.131" r="19.3717" fill="#FFDC82"/>
<circle cx="1075.13" cy="586.131" r="12.3037" fill="#1AC120"/>
<circle cx="1075" cy="586" r="6.15183" fill="#E42430"/>
<circle cx="825" cy="186" r="25" fill="black"/>
<circle cx="825.131" cy="186.131" r="19.3717" fill="#FFDC82"/>
<circle cx="825.131" cy="186.131" r="12.3037" fill="#1AC120"/>
<circle cx="825" cy="186" r="6.15183" fill="#E42430"/>
<circle cx="875" cy="236" r="25" fill="black"/>
<circle cx="875.131" cy="236.131" r="19.3717" fill="#FFDC82"/>
<circle cx="875.131" cy="236.131" r="12.3037" fill="#1AC120"/>
<circle cx="875" cy="236" r="6.15183" fill="#E42430"/>
<circle cx="925" cy="286" r="25" fill="black"/>
<circle cx="925.131" cy="286.131" r="19.3717" fill="#FFDC82"/>
<circle cx="925.131" cy="286.131" r="12.3037" fill="#1AC120"/>
<circle cx="925" cy="286" r="6.15183" fill="#E42430"/>
<circle cx="975" cy="336" r="25" fill="black"/>
<circle cx="975.131" cy="336.131" r="19.3717" fill="#FFDC82"/>
<circle cx="975.131" cy="336.131" r="12.3037" fill="#1AC120"/>
<circle cx="975" cy="336" r="6.15183" fill="#E42430"/>
<circle cx="1025" cy="386" r="25" fill="black"/>
<circle cx="1025.13" cy="386.131" r="19.3717" fill="#FFDC82"/>
<circle cx="1025.13" cy="386.131" r="12.3037" fill="#1AC120"/>
<circle cx="1025" cy="386" r="6.15183" fill="#E42430"/>
<circle cx="1075" cy="436" r="25" fill="black"/>
<circle cx="1075.13" cy="436.131" r="19.3717" fill="#FFDC82"/>
<circle cx="1075.13" cy="436.131" r="12.3037" fill="#1AC120"/>
<circle cx="1075" cy="436" r="6.15183" fill="#E42430"/>
<circle cx="975" cy="186" r="25" fill="black"/>
<circle cx="975.131" cy="186.131" r="19.3717" fill="#FFDC82"/>
<circle cx="975.131" cy="186.131" r="12.3037" fill="#1AC120"/>
<circle cx="975" cy="186" r="6.15183" fill="#E42430"/>
<circle cx="1025" cy="236" r="25" fill="black"/>
<circle cx="1025.13" cy="236.131" r="19.3717" fill="#FFDC82"/>
<circle cx="1025.13" cy="236.131" r="12.3037" fill="#1AC120"/>
<circle cx="1025" cy="236" r="6.15183" fill="#E42430"/>
<circle cx="1075" cy="286" r="25" fill="black"/>
<circle cx="1075.13" cy="286.131" r="19.3717" fill="#FFDC82"/>
<circle cx="1075.13" cy="286.131" r="12.3037" fill="#1AC120"/>
<circle cx="1075" cy="286" r="6.15183" fill="#E42430"/>
<circle cx="1031" cy="1075" r="25" transform="rotate(-180 1031 1075)" fill="black"/>
<circle cx="1030.87" cy="1074.87" r="19.3717" transform="rotate(-180 1030.87 1074.87)" fill="#FFDC82"/>
<circle cx="1030.87" cy="1074.87" r="12.3037" transform="rotate(-180 1030.87 1074.87)" fill="#1AC120"/>
<circle cx="1031" cy="1075" r="6.15183" transform="rotate(-180 1031 1075)" fill="#E42430"/>
<circle cx="981" cy="1025" r="25" transform="rotate(-180 981 1025)" fill="black"/>
<circle cx="980.869" cy="1024.87" r="19.3717" transform="rotate(-180 980.869 1024.87)" fill="#FFDC82"/>
<circle cx="980.869" cy="1024.87" r="12.3037" transform="rotate(-180 980.869 1024.87)" fill="#1AC120"/>
<circle cx="981" cy="1025" r="6.15183" transform="rotate(-180 981 1025)" fill="#E42430"/>
<circle cx="881" cy="1075" r="25" transform="rotate(-180 881 1075)" fill="black"/>
<circle cx="880.869" cy="1074.87" r="19.3717" transform="rotate(-180 880.869 1074.87)" fill="#FFDC82"/>
<circle cx="880.869" cy="1074.87" r="12.3037" transform="rotate(-180 880.869 1074.87)" fill="#1AC120"/>
<circle cx="881" cy="1075" r="6.15183" transform="rotate(-180 881 1075)" fill="#E42430"/>
<circle cx="831" cy="1025" r="25" transform="rotate(-180 831 1025)" fill="black"/>
<circle cx="830.869" cy="1024.87" r="19.3717" transform="rotate(-180 830.869 1024.87)" fill="#FFDC82"/>
<circle cx="830.869" cy="1024.87" r="12.3037" transform="rotate(-180 830.869 1024.87)" fill="#1AC120"/>
<circle cx="831" cy="1025" r="6.15183" transform="rotate(-180 831 1025)" fill="#E42430"/>
<circle cx="731" cy="1075" r="25" transform="rotate(-180 731 1075)" fill="black"/>
<circle cx="730.869" cy="1074.87" r="19.3717" transform="rotate(-180 730.869 1074.87)" fill="#FFDC82"/>
<circle cx="730.869" cy="1074.87" r="12.3037" transform="rotate(-180 730.869 1074.87)" fill="#1AC120"/>
<circle cx="731" cy="1075" r="6.15183" transform="rotate(-180 731 1075)" fill="#E42430"/>
<circle cx="681" cy="1025" r="25" transform="rotate(-180 681 1025)" fill="black"/>
<circle cx="680.869" cy="1024.87" r="19.3717" transform="rotate(-180 680.869 1024.87)" fill="#FFDC82"/>
<circle cx="680.869" cy="1024.87" r="12.3037" transform="rotate(-180 680.869 1024.87)" fill="#1AC120"/>
<circle cx="681" cy="1025" r="6.15183" transform="rotate(-180 681 1025)" fill="#E42430"/>
<circle cx="1081" cy="75" r="25" transform="rotate(-180 1081 75)" fill="black"/>
<circle cx="1080.87" cy="74.869" r="19.3717" transform="rotate(-180 1080.87 74.869)" fill="#FFDC82"/>
<circle cx="1080.87" cy="74.8692" r="12.3037" transform="rotate(-180 1080.87 74.8692)" fill="#1AC120"/>
<circle cx="1081" cy="75" r="6.15183" transform="rotate(-180 1081 75)" fill="#E42430"/>
<circle cx="1031" cy="25" r="25" transform="rotate(-180 1031 25)" fill="black"/>
<circle cx="1030.87" cy="24.869" r="19.3717" transform="rotate(-180 1030.87 24.869)" fill="#FFDC82"/>
<circle cx="1030.87" cy="24.8692" r="12.3037" transform="rotate(-180 1030.87 24.8692)" fill="#1AC120"/>
<circle cx="1031" cy="25" r="6.15183" transform="rotate(-180 1031 25)" fill="#E42430"/>
<circle cx="1081" cy="225" r="25" transform="rotate(-180 1081 225)" fill="black"/>
<circle cx="1080.87" cy="224.869" r="19.3717" transform="rotate(-180 1080.87 224.869)" fill="#FFDC82"/>
<circle cx="1080.87" cy="224.869" r="12.3037" transform="rotate(-180 1080.87 224.869)" fill="#1AC120"/>
<circle cx="1081" cy="225" r="6.15183" transform="rotate(-180 1081 225)" fill="#E42430"/>
<circle cx="1031" cy="175" r="25" transform="rotate(-180 1031 175)" fill="black"/>
<circle cx="1030.87" cy="174.869" r="19.3717" transform="rotate(-180 1030.87 174.869)" fill="#FFDC82"/>
<circle cx="1030.87" cy="174.869" r="12.3037" transform="rotate(-180 1030.87 174.869)" fill="#1AC120"/>
<circle cx="1031" cy="175" r="6.15183" transform="rotate(-180 1031 175)" fill="#E42430"/>
<circle cx="981" cy="125" r="25" transform="rotate(-180 981 125)" fill="black"/>
<circle cx="980.869" cy="124.869" r="19.3717" transform="rotate(-180 980.869 124.869)" fill="#FFDC82"/>
<circle cx="980.869" cy="124.869" r="12.3037" transform="rotate(-180 980.869 124.869)" fill="#1AC120"/>
<circle cx="981" cy="125" r="6.15183" transform="rotate(-180 981 125)" fill="#E42430"/>
<circle cx="931" cy="75" r="25" transform="rotate(-180 931 75)" fill="black"/>
<circle cx="930.869" cy="74.869" r="19.3717" transform="rotate(-180 930.869 74.869)" fill="#FFDC82"/>
<circle cx="930.869" cy="74.8692" r="12.3037" transform="rotate(-180 930.869 74.8692)" fill="#1AC120"/>
<circle cx="931" cy="75" r="6.15183" transform="rotate(-180 931 75)" fill="#E42430"/>
<circle cx="881" cy="25" r="25" transform="rotate(-180 881 25)" fill="black"/>
<circle cx="880.869" cy="24.869" r="19.3717" transform="rotate(-180 880.869 24.869)" fill="#FFDC82"/>
<circle cx="880.869" cy="24.8692" r="12.3037" transform="rotate(-180 880.869 24.8692)" fill="#1AC120"/>
<circle cx="881" cy="25" r="6.15183" transform="rotate(-180 881 25)" fill="#E42430"/>
<circle cx="1081" cy="375" r="25" transform="rotate(-180 1081 375)" fill="black"/>
<circle cx="1080.87" cy="374.869" r="19.3717" transform="rotate(-180 1080.87 374.869)" fill="#FFDC82"/>
<circle cx="1080.87" cy="374.869" r="12.3037" transform="rotate(-180 1080.87 374.869)" fill="#1AC120"/>
<circle cx="1081" cy="375" r="6.15183" transform="rotate(-180 1081 375)" fill="#E42430"/>
<circle cx="1031" cy="325" r="25" transform="rotate(-180 1031 325)" fill="black"/>
<circle cx="1030.87" cy="324.869" r="19.3717" transform="rotate(-180 1030.87 324.869)" fill="#FFDC82"/>
<circle cx="1030.87" cy="324.869" r="12.3037" transform="rotate(-180 1030.87 324.869)" fill="#1AC120"/>
<circle cx="1031" cy="325" r="6.15183" transform="rotate(-180 1031 325)" fill="#E42430"/>
<circle cx="981" cy="275" r="25" transform="rotate(-180 981 275)" fill="black"/>
<circle cx="980.869" cy="274.869" r="19.3717" transform="rotate(-180 980.869 274.869)" fill="#FFDC82"/>
<circle cx="980.869" cy="274.869" r="12.3037" transform="rotate(-180 980.869 274.869)" fill="#1AC120"/>
<circle cx="981" cy="275" r="6.15183" transform="rotate(-180 981 275)" fill="#E42430"/>
<circle cx="931" cy="225" r="25" transform="rotate(-180 931 225)" fill="black"/>
<circle cx="930.869" cy="224.869" r="19.3717" transform="rotate(-180 930.869 224.869)" fill="#FFDC82"/>
<circle cx="930.869" cy="224.869" r="12.3037" transform="rotate(-180 930.869 224.869)" fill="#1AC120"/>
<circle cx="931" cy="225" r="6.15183" transform="rotate(-180 931 225)" fill="#E42430"/>
<circle cx="881" cy="175" r="25" transform="rotate(-180 881 175)" fill="black"/>
<circle cx="880.869" cy="174.869" r="19.3717" transform="rotate(-180 880.869 174.869)" fill="#FFDC82"/>
<circle cx="880.869" cy="174.869" r="12.3037" transform="rotate(-180 880.869 174.869)" fill="#1AC120"/>
<circle cx="881" cy="175" r="6.15183" transform="rotate(-180 881 175)" fill="#E42430"/>
<circle cx="831" cy="125" r="25" transform="rotate(-180 831 125)" fill="black"/>
<circle cx="830.869" cy="124.869" r="19.3717" transform="rotate(-180 830.869 124.869)" fill="#FFDC82"/>
<circle cx="830.869" cy="124.869" r="12.3037" transform="rotate(-180 830.869 124.869)" fill="#1AC120"/>
<circle cx="831" cy="125" r="6.15183" transform="rotate(-180 831 125)" fill="#E42430"/>
<circle cx="781" cy="75" r="25" transform="rotate(-180 781 75)" fill="black"/>
<circle cx="780.869" cy="74.869" r="19.3717" transform="rotate(-180 780.869 74.869)" fill="#FFDC82"/>
<circle cx="780.869" cy="74.8692" r="12.3037" transform="rotate(-180 780.869 74.8692)" fill="#1AC120"/>
<circle cx="781" cy="75" r="6.15183" transform="rotate(-180 781 75)" fill="#E42430"/>
<circle cx="731" cy="25" r="25" transform="rotate(-180 731 25)" fill="black"/>
<circle cx="730.869" cy="24.869" r="19.3717" transform="rotate(-180 730.869 24.869)" fill="#FFDC82"/>
<circle cx="730.869" cy="24.8692" r="12.3037" transform="rotate(-180 730.869 24.8692)" fill="#1AC120"/>
<circle cx="731" cy="25" r="6.15183" transform="rotate(-180 731 25)" fill="#E42430"/>
<circle cx="1081" cy="525" r="25" transform="rotate(-180 1081 525)" fill="black"/>
<circle cx="1080.87" cy="524.869" r="19.3717" transform="rotate(-180 1080.87 524.869)" fill="#FFDC82"/>
<circle cx="1080.87" cy="524.869" r="12.3037" transform="rotate(-180 1080.87 524.869)" fill="#1AC120"/>
<circle cx="1081" cy="525" r="6.15183" transform="rotate(-180 1081 525)" fill="#E42430"/>
<circle cx="1031" cy="475" r="25" transform="rotate(-180 1031 475)" fill="black"/>
<circle cx="1030.87" cy="474.869" r="19.3717" transform="rotate(-180 1030.87 474.869)" fill="#FFDC82"/>
<circle cx="1030.87" cy="474.869" r="12.3037" transform="rotate(-180 1030.87 474.869)" fill="#1AC120"/>
<circle cx="1031" cy="475" r="6.15183" transform="rotate(-180 1031 475)" fill="#E42430"/>
<circle cx="981" cy="425" r="25" transform="rotate(-180 981 425)" fill="black"/>
<circle cx="980.869" cy="424.869" r="19.3717" transform="rotate(-180 980.869 424.869)" fill="#FFDC82"/>
<circle cx="980.869" cy="424.869" r="12.3037" transform="rotate(-180 980.869 424.869)" fill="#1AC120"/>
<circle cx="981" cy="425" r="6.15183" transform="rotate(-180 981 425)" fill="#E42430"/>
<circle cx="931" cy="375" r="25" transform="rotate(-180 931 375)" fill="black"/>
<circle cx="930.869" cy="374.869" r="19.3717" transform="rotate(-180 930.869 374.869)" fill="#FFDC82"/>
<circle cx="930.869" cy="374.869" r="12.3037" transform="rotate(-180 930.869 374.869)" fill="#1AC120"/>
<circle cx="931" cy="375" r="6.15183" transform="rotate(-180 931 375)" fill="#E42430"/>
<circle cx="881" cy="325" r="25" transform="rotate(-180 881 325)" fill="black"/>
<circle cx="880.869" cy="324.869" r="19.3717" transform="rotate(-180 880.869 324.869)" fill="#FFDC82"/>
<circle cx="880.869" cy="324.869" r="12.3037" transform="rotate(-180 880.869 324.869)" fill="#1AC120"/>
<circle cx="881" cy="325" r="6.15183" transform="rotate(-180 881 325)" fill="#E42430"/>
<circle cx="831" cy="275" r="25" transform="rotate(-180 831 275)" fill="black"/>
<circle cx="830.869" cy="274.869" r="19.3717" transform="rotate(-180 830.869 274.869)" fill="#FFDC82"/>
<circle cx="830.869" cy="274.869" r="12.3037" transform="rotate(-180 830.869 274.869)" fill="#1AC120"/>
<circle cx="831" cy="275" r="6.15183" transform="rotate(-180 831 275)" fill="#E42430"/>
<circle cx="781" cy="225" r="25" transform="rotate(-180 781 225)" fill="black"/>
<circle cx="780.869" cy="224.869" r="19.3717" transform="rotate(-180 780.869 224.869)" fill="#FFDC82"/>
<circle cx="780.869" cy="224.869" r="12.3037" transform="rotate(-180 780.869 224.869)" fill="#1AC120"/>
<circle cx="781" cy="225" r="6.15183" transform="rotate(-180 781 225)" fill="#E42430"/>
<circle cx="731" cy="175" r="25" transform="rotate(-180 731 175)" fill="black"/>
<circle cx="730.869" cy="174.869" r="19.3717" transform="rotate(-180 730.869 174.869)" fill="#FFDC82"/>
<circle cx="730.869" cy="174.869" r="12.3037" transform="rotate(-180 730.869 174.869)" fill="#1AC120"/>
<circle cx="731" cy="175" r="6.15183" transform="rotate(-180 731 175)" fill="#E42430"/>
<circle cx="681" cy="125" r="25" transform="rotate(-180 681 125)" fill="black"/>
<circle cx="680.869" cy="124.869" r="19.3717" transform="rotate(-180 680.869 124.869)" fill="#FFDC82"/>
<circle cx="680.869" cy="124.869" r="12.3037" transform="rotate(-180 680.869 124.869)" fill="#1AC120"/>
<circle cx="681" cy="125" r="6.15183" transform="rotate(-180 681 125)" fill="#E42430"/>
<circle cx="631" cy="75" r="25" transform="rotate(-180 631 75)" fill="black"/>
<circle cx="630.869" cy="74.869" r="19.3717" transform="rotate(-180 630.869 74.869)" fill="#FFDC82"/>
<circle cx="630.869" cy="74.8692" r="12.3037" transform="rotate(-180 630.869 74.8692)" fill="#1AC120"/>
<circle cx="631" cy="75" r="6.15183" transform="rotate(-180 631 75)" fill="#E42430"/>
<circle cx="581" cy="25" r="25" transform="rotate(-180 581 25)" fill="black"/>
<circle cx="580.869" cy="24.869" r="19.3717" transform="rotate(-180 580.869 24.869)" fill="#FFDC82"/>
<circle cx="580.869" cy="24.8692" r="12.3037" transform="rotate(-180 580.869 24.8692)" fill="#1AC120"/>
<circle cx="581" cy="25" r="6.15183" transform="rotate(-180 581 25)" fill="#E42430"/>
<circle cx="1081" cy="675" r="25" transform="rotate(-180 1081 675)" fill="black"/>
<circle cx="1080.87" cy="674.869" r="19.3717" transform="rotate(-180 1080.87 674.869)" fill="#FFDC82"/>
<circle cx="1080.87" cy="674.869" r="12.3037" transform="rotate(-180 1080.87 674.869)" fill="#1AC120"/>
<circle cx="1081" cy="675" r="6.15183" transform="rotate(-180 1081 675)" fill="#E42430"/>
<circle cx="1031" cy="625" r="25" transform="rotate(-180 1031 625)" fill="black"/>
<circle cx="1030.87" cy="624.869" r="19.3717" transform="rotate(-180 1030.87 624.869)" fill="#FFDC82"/>
<circle cx="1030.87" cy="624.869" r="12.3037" transform="rotate(-180 1030.87 624.869)" fill="#1AC120"/>
<circle cx="1031" cy="625" r="6.15183" transform="rotate(-180 1031 625)" fill="#E42430"/>
<circle cx="981" cy="575" r="25" transform="rotate(-180 981 575)" fill="black"/>
<circle cx="980.869" cy="574.869" r="19.3717" transform="rotate(-180 980.869 574.869)" fill="#FFDC82"/>
<circle cx="980.869" cy="574.869" r="12.3037" transform="rotate(-180 980.869 574.869)" fill="#1AC120"/>
<circle cx="981" cy="575" r="6.15183" transform="rotate(-180 981 575)" fill="#E42430"/>
<circle cx="931" cy="525" r="25" transform="rotate(-180 931 525)" fill="black"/>
<circle cx="930.869" cy="524.869" r="19.3717" transform="rotate(-180 930.869 524.869)" fill="#FFDC82"/>
<circle cx="930.869" cy="524.869" r="12.3037" transform="rotate(-180 930.869 524.869)" fill="#1AC120"/>
<circle cx="931" cy="525" r="6.15183" transform="rotate(-180 931 525)" fill="#E42430"/>
<circle cx="881" cy="475" r="25" transform="rotate(-180 881 475)" fill="black"/>
<circle cx="880.869" cy="474.869" r="19.3717" transform="rotate(-180 880.869 474.869)" fill="#FFDC82"/>
<circle cx="880.869" cy="474.869" r="12.3037" transform="rotate(-180 880.869 474.869)" fill="#1AC120"/>
<circle cx="881" cy="475" r="6.15183" transform="rotate(-180 881 475)" fill="#E42430"/>
<circle cx="831" cy="425" r="25" transform="rotate(-180 831 425)" fill="black"/>
<circle cx="830.869" cy="424.869" r="19.3717" transform="rotate(-180 830.869 424.869)" fill="#FFDC82"/>
<circle cx="830.869" cy="424.869" r="12.3037" transform="rotate(-180 830.869 424.869)" fill="#1AC120"/>
<circle cx="831" cy="425" r="6.15183" transform="rotate(-180 831 425)" fill="#E42430"/>
<circle cx="781" cy="375" r="25" transform="rotate(-180 781 375)" fill="black"/>
<circle cx="780.869" cy="374.869" r="19.3717" transform="rotate(-180 780.869 374.869)" fill="#FFDC82"/>
<circle cx="780.869" cy="374.869" r="12.3037" transform="rotate(-180 780.869 374.869)" fill="#1AC120"/>
<circle cx="781" cy="375" r="6.15183" transform="rotate(-180 781 375)" fill="#E42430"/>
<circle cx="731" cy="325" r="25" transform="rotate(-180 731 325)" fill="black"/>
<circle cx="730.869" cy="324.869" r="19.3717" transform="rotate(-180 730.869 324.869)" fill="#FFDC82"/>
<circle cx="730.869" cy="324.869" r="12.3037" transform="rotate(-180 730.869 324.869)" fill="#1AC120"/>
<circle cx="731" cy="325" r="6.15183" transform="rotate(-180 731 325)" fill="#E42430"/>
<circle cx="681" cy="275" r="25" transform="rotate(-180 681 275)" fill="black"/>
<circle cx="680.869" cy="274.869" r="19.3717" transform="rotate(-180 680.869 274.869)" fill="#FFDC82"/>
<circle cx="680.869" cy="274.869" r="12.3037" transform="rotate(-180 680.869 274.869)" fill="#1AC120"/>
<circle cx="681" cy="275" r="6.15183" transform="rotate(-180 681 275)" fill="#E42430"/>
<circle cx="631" cy="225" r="25" transform="rotate(-180 631 225)" fill="black"/>
<circle cx="630.869" cy="224.869" r="19.3717" transform="rotate(-180 630.869 224.869)" fill="#FFDC82"/>
<circle cx="630.869" cy="224.869" r="12.3037" transform="rotate(-180 630.869 224.869)" fill="#1AC120"/>
<circle cx="631" cy="225" r="6.15183" transform="rotate(-180 631 225)" fill="#E42430"/>
<circle cx="581" cy="175" r="25" transform="rotate(-180 581 175)" fill="black"/>
<circle cx="580.869" cy="174.869" r="19.3717" transform="rotate(-180 580.869 174.869)" fill="#FFDC82"/>
<circle cx="580.869" cy="174.869" r="12.3037" transform="rotate(-180 580.869 174.869)" fill="#1AC120"/>
<circle cx="581" cy="175" r="6.15183" transform="rotate(-180 581 175)" fill="#E42430"/>
<circle cx="531" cy="125" r="25" transform="rotate(-180 531 125)" fill="black"/>
<circle cx="530.869" cy="124.869" r="19.3717" transform="rotate(-180 530.869 124.869)" fill="#FFDC82"/>
<circle cx="530.869" cy="124.869" r="12.3037" transform="rotate(-180 530.869 124.869)" fill="#1AC120"/>
<circle cx="531" cy="125" r="6.15183" transform="rotate(-180 531 125)" fill="#E42430"/>
<circle cx="481" cy="75" r="25" transform="rotate(-180 481 75)" fill="black"/>
<circle cx="480.869" cy="74.869" r="19.3717" transform="rotate(-180 480.869 74.869)" fill="#FFDC82"/>
<circle cx="480.869" cy="74.8692" r="12.3037" transform="rotate(-180 480.869 74.8692)" fill="#1AC120"/>
<circle cx="481" cy="75" r="6.15183" transform="rotate(-180 481 75)" fill="#E42430"/>
<circle cx="431" cy="25" r="25" transform="rotate(-180 431 25)" fill="black"/>
<circle cx="430.869" cy="24.869" r="19.3717" transform="rotate(-180 430.869 24.869)" fill="#FFDC82"/>
<circle cx="430.869" cy="24.8692" r="12.3037" transform="rotate(-180 430.869 24.8692)" fill="#1AC120"/>
<circle cx="431" cy="25" r="6.15183" transform="rotate(-180 431 25)" fill="#E42430"/>
<circle cx="1081" cy="825" r="25" transform="rotate(-180 1081 825)" fill="black"/>
<circle cx="1080.87" cy="824.869" r="19.3717" transform="rotate(-180 1080.87 824.869)" fill="#FFDC82"/>
<circle cx="1080.87" cy="824.869" r="12.3037" transform="rotate(-180 1080.87 824.869)" fill="#1AC120"/>
<circle cx="1081" cy="825" r="6.15183" transform="rotate(-180 1081 825)" fill="#E42430"/>
<circle cx="1031" cy="775" r="25" transform="rotate(-180 1031 775)" fill="black"/>
<circle cx="1030.87" cy="774.869" r="19.3717" transform="rotate(-180 1030.87 774.869)" fill="#FFDC82"/>
<circle cx="1030.87" cy="774.869" r="12.3037" transform="rotate(-180 1030.87 774.869)" fill="#1AC120"/>
<circle cx="1031" cy="775" r="6.15183" transform="rotate(-180 1031 775)" fill="#E42430"/>
<circle cx="981" cy="725" r="25" transform="rotate(-180 981 725)" fill="black"/>
<circle cx="980.869" cy="724.869" r="19.3717" transform="rotate(-180 980.869 724.869)" fill="#FFDC82"/>
<circle cx="980.869" cy="724.869" r="12.3037" transform="rotate(-180 980.869 724.869)" fill="#1AC120"/>
<circle cx="981" cy="725" r="6.15183" transform="rotate(-180 981 725)" fill="#E42430"/>
<circle cx="931" cy="675" r="25" transform="rotate(-180 931 675)" fill="black"/>
<circle cx="930.869" cy="674.869" r="19.3717" transform="rotate(-180 930.869 674.869)" fill="#FFDC82"/>
<circle cx="930.869" cy="674.869" r="12.3037" transform="rotate(-180 930.869 674.869)" fill="#1AC120"/>
<circle cx="931" cy="675" r="6.15183" transform="rotate(-180 931 675)" fill="#E42430"/>
<circle cx="881" cy="625" r="25" transform="rotate(-180 881 625)" fill="black"/>
<circle cx="880.869" cy="624.869" r="19.3717" transform="rotate(-180 880.869 624.869)" fill="#FFDC82"/>
<circle cx="880.869" cy="624.869" r="12.3037" transform="rotate(-180 880.869 624.869)" fill="#1AC120"/>
<circle cx="881" cy="625" r="6.15183" transform="rotate(-180 881 625)" fill="#E42430"/>
<circle cx="831" cy="575" r="25" transform="rotate(-180 831 575)" fill="black"/>
<circle cx="830.869" cy="574.869" r="19.3717" transform="rotate(-180 830.869 574.869)" fill="#FFDC82"/>
<circle cx="830.869" cy="574.869" r="12.3037" transform="rotate(-180 830.869 574.869)" fill="#1AC120"/>
<circle cx="831" cy="575" r="6.15183" transform="rotate(-180 831 575)" fill="#E42430"/>
<circle cx="781" cy="525" r="25" transform="rotate(-180 781 525)" fill="black"/>
<circle cx="780.869" cy="524.869" r="19.3717" transform="rotate(-180 780.869 524.869)" fill="#FFDC82"/>
<circle cx="780.869" cy="524.869" r="12.3037" transform="rotate(-180 780.869 524.869)" fill="#1AC120"/>
<circle cx="781" cy="525" r="6.15183" transform="rotate(-180 781 525)" fill="#E42430"/>
<circle cx="731" cy="475" r="25" transform="rotate(-180 731 475)" fill="black"/>
<circle cx="730.869" cy="474.869" r="19.3717" transform="rotate(-180 730.869 474.869)" fill="#FFDC82"/>
<circle cx="730.869" cy="474.869" r="12.3037" transform="rotate(-180 730.869 474.869)" fill="#1AC120"/>
<circle cx="731" cy="475" r="6.15183" transform="rotate(-180 731 475)" fill="#E42430"/>
<circle cx="681" cy="425" r="25" transform="rotate(-180 681 425)" fill="black"/>
<circle cx="680.869" cy="424.869" r="19.3717" transform="rotate(-180 680.869 424.869)" fill="#FFDC82"/>
<circle cx="680.869" cy="424.869" r="12.3037" transform="rotate(-180 680.869 424.869)" fill="#1AC120"/>
<circle cx="681" cy="425" r="6.15183" transform="rotate(-180 681 425)" fill="#E42430"/>
<circle cx="631" cy="375" r="25" transform="rotate(-180 631 375)" fill="black"/>
<circle cx="630.869" cy="374.869" r="19.3717" transform="rotate(-180 630.869 374.869)" fill="#FFDC82"/>
<circle cx="630.869" cy="374.869" r="12.3037" transform="rotate(-180 630.869 374.869)" fill="#1AC120"/>
<circle cx="631" cy="375" r="6.15183" transform="rotate(-180 631 375)" fill="#E42430"/>
<circle cx="581" cy="325" r="25" transform="rotate(-180 581 325)" fill="black"/>
<circle cx="580.869" cy="324.869" r="19.3717" transform="rotate(-180 580.869 324.869)" fill="#FFDC82"/>
<circle cx="580.869" cy="324.869" r="12.3037" transform="rotate(-180 580.869 324.869)" fill="#1AC120"/>
<circle cx="581" cy="325" r="6.15183" transform="rotate(-180 581 325)" fill="#E42430"/>
<circle cx="531" cy="275" r="25" transform="rotate(-180 531 275)" fill="black"/>
<circle cx="530.869" cy="274.869" r="19.3717" transform="rotate(-180 530.869 274.869)" fill="#FFDC82"/>
<circle cx="530.869" cy="274.869" r="12.3037" transform="rotate(-180 530.869 274.869)" fill="#1AC120"/>
<circle cx="531" cy="275" r="6.15183" transform="rotate(-180 531 275)" fill="#E42430"/>
<circle cx="481" cy="225" r="25" transform="rotate(-180 481 225)" fill="black"/>
<circle cx="480.869" cy="224.869" r="19.3717" transform="rotate(-180 480.869 224.869)" fill="#FFDC82"/>
<circle cx="480.869" cy="224.869" r="12.3037" transform="rotate(-180 480.869 224.869)" fill="#1AC120"/>
<circle cx="481" cy="225" r="6.15183" transform="rotate(-180 481 225)" fill="#E42430"/>
<circle cx="431" cy="175" r="25" transform="rotate(-180 431 175)" fill="black"/>
<circle cx="430.869" cy="174.869" r="19.3717" transform="rotate(-180 430.869 174.869)" fill="#FFDC82"/>
<circle cx="430.869" cy="174.869" r="12.3037" transform="rotate(-180 430.869 174.869)" fill="#1AC120"/>
<circle cx="431" cy="175" r="6.15183" transform="rotate(-180 431 175)" fill="#E42430"/>
<circle cx="381" cy="125" r="25" transform="rotate(-180 381 125)" fill="black"/>
<circle cx="380.869" cy="124.869" r="19.3717" transform="rotate(-180 380.869 124.869)" fill="#FFDC82"/>
<circle cx="380.869" cy="124.869" r="12.3037" transform="rotate(-180 380.869 124.869)" fill="#1AC120"/>
<circle cx="381" cy="125" r="6.15183" transform="rotate(-180 381 125)" fill="#E42430"/>
<circle cx="331" cy="75" r="25" transform="rotate(-180 331 75)" fill="black"/>
<circle cx="330.869" cy="74.869" r="19.3717" transform="rotate(-180 330.869 74.869)" fill="#FFDC82"/>
<circle cx="330.869" cy="74.8692" r="12.3037" transform="rotate(-180 330.869 74.8692)" fill="#1AC120"/>
<circle cx="331" cy="75" r="6.15183" transform="rotate(-180 331 75)" fill="#E42430"/>
<circle cx="281" cy="25" r="25" transform="rotate(-180 281 25)" fill="black"/>
<circle cx="280.869" cy="24.869" r="19.3717" transform="rotate(-180 280.869 24.869)" fill="#FFDC82"/>
<circle cx="280.869" cy="24.8692" r="12.3037" transform="rotate(-180 280.869 24.8692)" fill="#1AC120"/>
<circle cx="281" cy="25" r="6.15183" transform="rotate(-180 281 25)" fill="#E42430"/>
<circle cx="1081" cy="975" r="25" transform="rotate(-180 1081 975)" fill="black"/>
<circle cx="1080.87" cy="974.869" r="19.3717" transform="rotate(-180 1080.87 974.869)" fill="#FFDC82"/>
<circle cx="1080.87" cy="974.869" r="12.3037" transform="rotate(-180 1080.87 974.869)" fill="#1AC120"/>
<circle cx="1081" cy="975" r="6.15183" transform="rotate(-180 1081 975)" fill="#E42430"/>
<circle cx="1031" cy="925" r="25" transform="rotate(-180 1031 925)" fill="black"/>
<circle cx="1030.87" cy="924.869" r="19.3717" transform="rotate(-180 1030.87 924.869)" fill="#FFDC82"/>
<circle cx="1030.87" cy="924.869" r="12.3037" transform="rotate(-180 1030.87 924.869)" fill="#1AC120"/>
<circle cx="1031" cy="925" r="6.15183" transform="rotate(-180 1031 925)" fill="#E42430"/>
<circle cx="981" cy="875" r="25" transform="rotate(-180 981 875)" fill="black"/>
<circle cx="980.869" cy="874.869" r="19.3717" transform="rotate(-180 980.869 874.869)" fill="#FFDC82"/>
<circle cx="980.869" cy="874.869" r="12.3037" transform="rotate(-180 980.869 874.869)" fill="#1AC120"/>
<circle cx="981" cy="875" r="6.15183" transform="rotate(-180 981 875)" fill="#E42430"/>
<circle cx="931" cy="825" r="25" transform="rotate(-180 931 825)" fill="black"/>
<circle cx="930.869" cy="824.869" r="19.3717" transform="rotate(-180 930.869 824.869)" fill="#FFDC82"/>
<circle cx="930.869" cy="824.869" r="12.3037" transform="rotate(-180 930.869 824.869)" fill="#1AC120"/>
<circle cx="931" cy="825" r="6.15183" transform="rotate(-180 931 825)" fill="#E42430"/>
<circle cx="881" cy="775" r="25" transform="rotate(-180 881 775)" fill="black"/>
<circle cx="880.869" cy="774.869" r="19.3717" transform="rotate(-180 880.869 774.869)" fill="#FFDC82"/>
<circle cx="880.869" cy="774.869" r="12.3037" transform="rotate(-180 880.869 774.869)" fill="#1AC120"/>
<circle cx="881" cy="775" r="6.15183" transform="rotate(-180 881 775)" fill="#E42430"/>
<circle cx="831" cy="725" r="25" transform="rotate(-180 831 725)" fill="black"/>
<circle cx="830.869" cy="724.869" r="19.3717" transform="rotate(-180 830.869 724.869)" fill="#FFDC82"/>
<circle cx="830.869" cy="724.869" r="12.3037" transform="rotate(-180 830.869 724.869)" fill="#1AC120"/>
<circle cx="831" cy="725" r="6.15183" transform="rotate(-180 831 725)" fill="#E42430"/>
<circle cx="781" cy="675" r="25" transform="rotate(-180 781 675)" fill="black"/>
<circle cx="780.869" cy="674.869" r="19.3717" transform="rotate(-180 780.869 674.869)" fill="#FFDC82"/>
<circle cx="780.869" cy="674.869" r="12.3037" transform="rotate(-180 780.869 674.869)" fill="#1AC120"/>
<circle cx="781" cy="675" r="6.15183" transform="rotate(-180 781 675)" fill="#E42430"/>
<circle cx="731" cy="625" r="25" transform="rotate(-180 731 625)" fill="black"/>
<circle cx="730.869" cy="624.869" r="19.3717" transform="rotate(-180 730.869 624.869)" fill="#FFDC82"/>
<circle cx="730.869" cy="624.869" r="12.3037" transform="rotate(-180 730.869 624.869)" fill="#1AC120"/>
<circle cx="731" cy="625" r="6.15183" transform="rotate(-180 731 625)" fill="#E42430"/>
<circle cx="681" cy="575" r="25" transform="rotate(-180 681 575)" fill="black"/>
<circle cx="680.869" cy="574.869" r="19.3717" transform="rotate(-180 680.869 574.869)" fill="#FFDC82"/>
<circle cx="680.869" cy="574.869" r="12.3037" transform="rotate(-180 680.869 574.869)" fill="#1AC120"/>
<circle cx="681" cy="575" r="6.15183" transform="rotate(-180 681 575)" fill="#E42430"/>
<circle cx="631" cy="525" r="25" transform="rotate(-180 631 525)" fill="black"/>
<circle cx="630.869" cy="524.869" r="19.3717" transform="rotate(-180 630.869 524.869)" fill="#FFDC82"/>
<circle cx="630.869" cy="524.869" r="12.3037" transform="rotate(-180 630.869 524.869)" fill="#1AC120"/>
<circle cx="631" cy="525" r="6.15183" transform="rotate(-180 631 525)" fill="#E42430"/>
<circle cx="581" cy="475" r="25" transform="rotate(-180 581 475)" fill="black"/>
<circle cx="580.869" cy="474.869" r="19.3717" transform="rotate(-180 580.869 474.869)" fill="#FFDC82"/>
<circle cx="580.869" cy="474.869" r="12.3037" transform="rotate(-180 580.869 474.869)" fill="#1AC120"/>
<circle cx="581" cy="475" r="6.15183" transform="rotate(-180 581 475)" fill="#E42430"/>
<circle cx="531" cy="425" r="25" transform="rotate(-180 531 425)" fill="black"/>
<circle cx="530.869" cy="424.869" r="19.3717" transform="rotate(-180 530.869 424.869)" fill="#FFDC82"/>
<circle cx="530.869" cy="424.869" r="12.3037" transform="rotate(-180 530.869 424.869)" fill="#1AC120"/>
<circle cx="531" cy="425" r="6.15183" transform="rotate(-180 531 425)" fill="#E42430"/>
<circle cx="481" cy="375" r="25" transform="rotate(-180 481 375)" fill="black"/>
<circle cx="480.869" cy="374.869" r="19.3717" transform="rotate(-180 480.869 374.869)" fill="#FFDC82"/>
<circle cx="480.869" cy="374.869" r="12.3037" transform="rotate(-180 480.869 374.869)" fill="#1AC120"/>
<circle cx="481" cy="375" r="6.15183" transform="rotate(-180 481 375)" fill="#E42430"/>
<circle cx="431" cy="325" r="25" transform="rotate(-180 431 325)" fill="black"/>
<circle cx="430.869" cy="324.869" r="19.3717" transform="rotate(-180 430.869 324.869)" fill="#FFDC82"/>
<circle cx="430.869" cy="324.869" r="12.3037" transform="rotate(-180 430.869 324.869)" fill="#1AC120"/>
<circle cx="431" cy="325" r="6.15183" transform="rotate(-180 431 325)" fill="#E42430"/>
<circle cx="381" cy="275" r="25" transform="rotate(-180 381 275)" fill="black"/>
<circle cx="380.869" cy="274.869" r="19.3717" transform="rotate(-180 380.869 274.869)" fill="#FFDC82"/>
<circle cx="380.869" cy="274.869" r="12.3037" transform="rotate(-180 380.869 274.869)" fill="#1AC120"/>
<circle cx="381" cy="275" r="6.15183" transform="rotate(-180 381 275)" fill="#E42430"/>
<circle cx="331" cy="225" r="25" transform="rotate(-180 331 225)" fill="black"/>
<circle cx="330.869" cy="224.869" r="19.3717" transform="rotate(-180 330.869 224.869)" fill="#FFDC82"/>
<circle cx="330.869" cy="224.869" r="12.3037" transform="rotate(-180 330.869 224.869)" fill="#1AC120"/>
<circle cx="331" cy="225" r="6.15183" transform="rotate(-180 331 225)" fill="#E42430"/>
<circle cx="281" cy="175" r="25" transform="rotate(-180 281 175)" fill="black"/>
<circle cx="280.869" cy="174.869" r="19.3717" transform="rotate(-180 280.869 174.869)" fill="#FFDC82"/>
<circle cx="280.869" cy="174.869" r="12.3037" transform="rotate(-180 280.869 174.869)" fill="#1AC120"/>
<circle cx="281" cy="175" r="6.15183" transform="rotate(-180 281 175)" fill="#E42430"/>
<circle cx="231" cy="125" r="25" transform="rotate(-180 231 125)" fill="black"/>
<circle cx="230.869" cy="124.869" r="19.3717" transform="rotate(-180 230.869 124.869)" fill="#FFDC82"/>
<circle cx="230.869" cy="124.869" r="12.3037" transform="rotate(-180 230.869 124.869)" fill="#1AC120"/>
<circle cx="231" cy="125" r="6.15183" transform="rotate(-180 231 125)" fill="#E42430"/>
<circle cx="181" cy="75" r="25" transform="rotate(-180 181 75)" fill="black"/>
<circle cx="180.869" cy="74.869" r="19.3717" transform="rotate(-180 180.869 74.869)" fill="#FFDC82"/>
<circle cx="180.869" cy="74.8692" r="12.3037" transform="rotate(-180 180.869 74.8692)" fill="#1AC120"/>
<circle cx="181" cy="75" r="6.15183" transform="rotate(-180 181 75)" fill="#E42430"/>
<circle cx="131" cy="25" r="25" transform="rotate(-180 131 25)" fill="black"/>
<circle cx="130.869" cy="24.869" r="19.3717" transform="rotate(-180 130.869 24.869)" fill="#FFDC82"/>
<circle cx="130.869" cy="24.8692" r="12.3037" transform="rotate(-180 130.869 24.8692)" fill="#1AC120"/>
<circle cx="131" cy="25" r="6.15183" transform="rotate(-180 131 25)" fill="#E42430"/>
<circle cx="931" cy="975" r="25" transform="rotate(-180 931 975)" fill="black"/>
<circle cx="930.869" cy="974.869" r="19.3717" transform="rotate(-180 930.869 974.869)" fill="#FFDC82"/>
<circle cx="930.869" cy="974.869" r="12.3037" transform="rotate(-180 930.869 974.869)" fill="#1AC120"/>
<circle cx="931" cy="975" r="6.15183" transform="rotate(-180 931 975)" fill="#E42430"/>
<circle cx="881" cy="925" r="25" transform="rotate(-180 881 925)" fill="black"/>
<circle cx="880.869" cy="924.869" r="19.3717" transform="rotate(-180 880.869 924.869)" fill="#FFDC82"/>
<circle cx="880.869" cy="924.869" r="12.3037" transform="rotate(-180 880.869 924.869)" fill="#1AC120"/>
<circle cx="881" cy="925" r="6.15183" transform="rotate(-180 881 925)" fill="#E42430"/>
<circle cx="831" cy="875" r="25" transform="rotate(-180 831 875)" fill="black"/>
<circle cx="830.869" cy="874.869" r="19.3717" transform="rotate(-180 830.869 874.869)" fill="#FFDC82"/>
<circle cx="830.869" cy="874.869" r="12.3037" transform="rotate(-180 830.869 874.869)" fill="#1AC120"/>
<circle cx="831" cy="875" r="6.15183" transform="rotate(-180 831 875)" fill="#E42430"/>
<circle cx="781" cy="825" r="25" transform="rotate(-180 781 825)" fill="black"/>
<circle cx="780.869" cy="824.869" r="19.3717" transform="rotate(-180 780.869 824.869)" fill="#FFDC82"/>
<circle cx="780.869" cy="824.869" r="12.3037" transform="rotate(-180 780.869 824.869)" fill="#1AC120"/>
<circle cx="781" cy="825" r="6.15183" transform="rotate(-180 781 825)" fill="#E42430"/>
<circle cx="731" cy="775" r="25" transform="rotate(-180 731 775)" fill="black"/>
<circle cx="730.869" cy="774.869" r="19.3717" transform="rotate(-180 730.869 774.869)" fill="#FFDC82"/>
<circle cx="730.869" cy="774.869" r="12.3037" transform="rotate(-180 730.869 774.869)" fill="#1AC120"/>
<circle cx="731" cy="775" r="6.15183" transform="rotate(-180 731 775)" fill="#E42430"/>
<circle cx="681" cy="725" r="25" transform="rotate(-180 681 725)" fill="black"/>
<circle cx="680.869" cy="724.869" r="19.3717" transform="rotate(-180 680.869 724.869)" fill="#FFDC82"/>
<circle cx="680.869" cy="724.869" r="12.3037" transform="rotate(-180 680.869 724.869)" fill="#1AC120"/>
<circle cx="681" cy="725" r="6.15183" transform="rotate(-180 681 725)" fill="#E42430"/>
<circle cx="631" cy="675" r="25" transform="rotate(-180 631 675)" fill="black"/>
<circle cx="630.869" cy="674.869" r="19.3717" transform="rotate(-180 630.869 674.869)" fill="#FFDC82"/>
<circle cx="630.869" cy="674.869" r="12.3037" transform="rotate(-180 630.869 674.869)" fill="#1AC120"/>
<circle cx="631" cy="675" r="6.15183" transform="rotate(-180 631 675)" fill="#E42430"/>
<circle cx="581" cy="625" r="25" transform="rotate(-180 581 625)" fill="black"/>
<circle cx="580.869" cy="624.869" r="19.3717" transform="rotate(-180 580.869 624.869)" fill="#FFDC82"/>
<circle cx="580.869" cy="624.869" r="12.3037" transform="rotate(-180 580.869 624.869)" fill="#1AC120"/>
<circle cx="581" cy="625" r="6.15183" transform="rotate(-180 581 625)" fill="#E42430"/>
<circle cx="531" cy="575" r="25" transform="rotate(-180 531 575)" fill="black"/>
<circle cx="530.869" cy="574.869" r="19.3717" transform="rotate(-180 530.869 574.869)" fill="#FFDC82"/>
<circle cx="530.869" cy="574.869" r="12.3037" transform="rotate(-180 530.869 574.869)" fill="#1AC120"/>
<circle cx="531" cy="575" r="6.15183" transform="rotate(-180 531 575)" fill="#E42430"/>
<circle cx="481" cy="525" r="25" transform="rotate(-180 481 525)" fill="black"/>
<circle cx="480.869" cy="524.869" r="19.3717" transform="rotate(-180 480.869 524.869)" fill="#FFDC82"/>
<circle cx="480.869" cy="524.869" r="12.3037" transform="rotate(-180 480.869 524.869)" fill="#1AC120"/>
<circle cx="481" cy="525" r="6.15183" transform="rotate(-180 481 525)" fill="#E42430"/>
<circle cx="431" cy="475" r="25" transform="rotate(-180 431 475)" fill="black"/>
<circle cx="430.869" cy="474.869" r="19.3717" transform="rotate(-180 430.869 474.869)" fill="#FFDC82"/>
<circle cx="430.869" cy="474.869" r="12.3037" transform="rotate(-180 430.869 474.869)" fill="#1AC120"/>
<circle cx="431" cy="475" r="6.15183" transform="rotate(-180 431 475)" fill="#E42430"/>
<circle cx="381" cy="425" r="25" transform="rotate(-180 381 425)" fill="black"/>
<circle cx="380.869" cy="424.869" r="19.3717" transform="rotate(-180 380.869 424.869)" fill="#FFDC82"/>
<circle cx="380.869" cy="424.869" r="12.3037" transform="rotate(-180 380.869 424.869)" fill="#1AC120"/>
<circle cx="381" cy="425" r="6.15183" transform="rotate(-180 381 425)" fill="#E42430"/>
<circle cx="331" cy="375" r="25" transform="rotate(-180 331 375)" fill="black"/>
<circle cx="330.869" cy="374.869" r="19.3717" transform="rotate(-180 330.869 374.869)" fill="#FFDC82"/>
<circle cx="330.869" cy="374.869" r="12.3037" transform="rotate(-180 330.869 374.869)" fill="#1AC120"/>
<circle cx="331" cy="375" r="6.15183" transform="rotate(-180 331 375)" fill="#E42430"/>
<circle cx="281" cy="325" r="25" transform="rotate(-180 281 325)" fill="black"/>
<circle cx="280.869" cy="324.869" r="19.3717" transform="rotate(-180 280.869 324.869)" fill="#FFDC82"/>
<circle cx="280.869" cy="324.869" r="12.3037" transform="rotate(-180 280.869 324.869)" fill="#1AC120"/>
<circle cx="281" cy="325" r="6.15183" transform="rotate(-180 281 325)" fill="#E42430"/>
<circle cx="231" cy="275" r="25" transform="rotate(-180 231 275)" fill="black"/>
<circle cx="230.869" cy="274.869" r="19.3717" transform="rotate(-180 230.869 274.869)" fill="#FFDC82"/>
<circle cx="230.869" cy="274.869" r="12.3037" transform="rotate(-180 230.869 274.869)" fill="#1AC120"/>
<circle cx="231" cy="275" r="6.15183" transform="rotate(-180 231 275)" fill="#E42430"/>
<circle cx="181" cy="225" r="25" transform="rotate(-180 181 225)" fill="black"/>
<circle cx="180.869" cy="224.869" r="19.3717" transform="rotate(-180 180.869 224.869)" fill="#FFDC82"/>
<circle cx="180.869" cy="224.869" r="12.3037" transform="rotate(-180 180.869 224.869)" fill="#1AC120"/>
<circle cx="181" cy="225" r="6.15183" transform="rotate(-180 181 225)" fill="#E42430"/>
<circle cx="131" cy="175" r="25" transform="rotate(-180 131 175)" fill="black"/>
<circle cx="130.869" cy="174.869" r="19.3717" transform="rotate(-180 130.869 174.869)" fill="#FFDC82"/>
<circle cx="130.869" cy="174.869" r="12.3037" transform="rotate(-180 130.869 174.869)" fill="#1AC120"/>
<circle cx="131" cy="175" r="6.15183" transform="rotate(-180 131 175)" fill="#E42430"/>
<circle cx="81" cy="125" r="25" transform="rotate(-180 81 125)" fill="black"/>
<circle cx="80.8691" cy="124.869" r="19.3717" transform="rotate(-180 80.8691 124.869)" fill="#FFDC82"/>
<circle cx="80.8691" cy="124.869" r="12.3037" transform="rotate(-180 80.8691 124.869)" fill="#1AC120"/>
<circle cx="81" cy="125" r="6.15183" transform="rotate(-180 81 125)" fill="#E42430"/>
<circle cx="31" cy="75" r="25" transform="rotate(-180 31 75)" fill="black"/>
<circle cx="30.8691" cy="74.869" r="19.3717" transform="rotate(-180 30.8691 74.869)" fill="#FFDC82"/>
<circle cx="30.8691" cy="74.8692" r="12.3037" transform="rotate(-180 30.8691 74.8692)" fill="#1AC120"/>
<circle cx="31" cy="75" r="6.15183" transform="rotate(-180 31 75)" fill="#E42430"/>
<circle cx="781" cy="975" r="25" transform="rotate(-180 781 975)" fill="black"/>
<circle cx="780.869" cy="974.869" r="19.3717" transform="rotate(-180 780.869 974.869)" fill="#FFDC82"/>
<circle cx="780.869" cy="974.869" r="12.3037" transform="rotate(-180 780.869 974.869)" fill="#1AC120"/>
<circle cx="781" cy="975" r="6.15183" transform="rotate(-180 781 975)" fill="#E42430"/>
<circle cx="731" cy="925" r="25" transform="rotate(-180 731 925)" fill="black"/>
<circle cx="730.869" cy="924.869" r="19.3717" transform="rotate(-180 730.869 924.869)" fill="#FFDC82"/>
<circle cx="730.869" cy="924.869" r="12.3037" transform="rotate(-180 730.869 924.869)" fill="#1AC120"/>
<circle cx="731" cy="925" r="6.15183" transform="rotate(-180 731 925)" fill="#E42430"/>
<circle cx="681" cy="875" r="25" transform="rotate(-180 681 875)" fill="black"/>
<circle cx="680.869" cy="874.869" r="19.3717" transform="rotate(-180 680.869 874.869)" fill="#FFDC82"/>
<circle cx="680.869" cy="874.869" r="12.3037" transform="rotate(-180 680.869 874.869)" fill="#1AC120"/>
<circle cx="681" cy="875" r="6.15183" transform="rotate(-180 681 875)" fill="#E42430"/>
<circle cx="631" cy="825" r="25" transform="rotate(-180 631 825)" fill="black"/>
<circle cx="630.869" cy="824.869" r="19.3717" transform="rotate(-180 630.869 824.869)" fill="#FFDC82"/>
<circle cx="630.869" cy="824.869" r="12.3037" transform="rotate(-180 630.869 824.869)" fill="#1AC120"/>
<circle cx="631" cy="825" r="6.15183" transform="rotate(-180 631 825)" fill="#E42430"/>
<circle cx="581" cy="775" r="25" transform="rotate(-180 581 775)" fill="black"/>
<circle cx="580.869" cy="774.869" r="19.3717" transform="rotate(-180 580.869 774.869)" fill="#FFDC82"/>
<circle cx="580.869" cy="774.869" r="12.3037" transform="rotate(-180 580.869 774.869)" fill="#1AC120"/>
<circle cx="581" cy="775" r="6.15183" transform="rotate(-180 581 775)" fill="#E42430"/>
<circle cx="531" cy="725" r="25" transform="rotate(-180 531 725)" fill="black"/>
<circle cx="530.869" cy="724.869" r="19.3717" transform="rotate(-180 530.869 724.869)" fill="#FFDC82"/>
<circle cx="530.869" cy="724.869" r="12.3037" transform="rotate(-180 530.869 724.869)" fill="#1AC120"/>
<circle cx="531" cy="725" r="6.15183" transform="rotate(-180 531 725)" fill="#E42430"/>
<circle cx="481" cy="675" r="25" transform="rotate(-180 481 675)" fill="black"/>
<circle cx="480.869" cy="674.869" r="19.3717" transform="rotate(-180 480.869 674.869)" fill="#FFDC82"/>
<circle cx="480.869" cy="674.869" r="12.3037" transform="rotate(-180 480.869 674.869)" fill="#1AC120"/>
<circle cx="481" cy="675" r="6.15183" transform="rotate(-180 481 675)" fill="#E42430"/>
<circle cx="431" cy="625" r="25" transform="rotate(-180 431 625)" fill="black"/>
<circle cx="430.869" cy="624.869" r="19.3717" transform="rotate(-180 430.869 624.869)" fill="#FFDC82"/>
<circle cx="430.869" cy="624.869" r="12.3037" transform="rotate(-180 430.869 624.869)" fill="#1AC120"/>
<circle cx="431" cy="625" r="6.15183" transform="rotate(-180 431 625)" fill="#E42430"/>
<circle cx="381" cy="575" r="25" transform="rotate(-180 381 575)" fill="black"/>
<circle cx="380.869" cy="574.869" r="19.3717" transform="rotate(-180 380.869 574.869)" fill="#FFDC82"/>
<circle cx="380.869" cy="574.869" r="12.3037" transform="rotate(-180 380.869 574.869)" fill="#1AC120"/>
<circle cx="381" cy="575" r="6.15183" transform="rotate(-180 381 575)" fill="#E42430"/>
<circle cx="331" cy="525" r="25" transform="rotate(-180 331 525)" fill="black"/>
<circle cx="330.869" cy="524.869" r="19.3717" transform="rotate(-180 330.869 524.869)" fill="#FFDC82"/>
<circle cx="330.869" cy="524.869" r="12.3037" transform="rotate(-180 330.869 524.869)" fill="#1AC120"/>
<circle cx="331" cy="525" r="6.15183" transform="rotate(-180 331 525)" fill="#E42430"/>
<circle cx="281" cy="475" r="25" transform="rotate(-180 281 475)" fill="black"/>
<circle cx="280.869" cy="474.869" r="19.3717" transform="rotate(-180 280.869 474.869)" fill="#FFDC82"/>
<circle cx="280.869" cy="474.869" r="12.3037" transform="rotate(-180 280.869 474.869)" fill="#1AC120"/>
<circle cx="281" cy="475" r="6.15183" transform="rotate(-180 281 475)" fill="#E42430"/>
<circle cx="231" cy="425" r="25" transform="rotate(-180 231 425)" fill="black"/>
<circle cx="230.869" cy="424.869" r="19.3717" transform="rotate(-180 230.869 424.869)" fill="#FFDC82"/>
<circle cx="230.869" cy="424.869" r="12.3037" transform="rotate(-180 230.869 424.869)" fill="#1AC120"/>
<circle cx="231" cy="425" r="6.15183" transform="rotate(-180 231 425)" fill="#E42430"/>
<circle cx="181" cy="375" r="25" transform="rotate(-180 181 375)" fill="black"/>
<circle cx="180.869" cy="374.869" r="19.3717" transform="rotate(-180 180.869 374.869)" fill="#FFDC82"/>
<circle cx="180.869" cy="374.869" r="12.3037" transform="rotate(-180 180.869 374.869)" fill="#1AC120"/>
<circle cx="181" cy="375" r="6.15183" transform="rotate(-180 181 375)" fill="#E42430"/>
<circle cx="131" cy="325" r="25" transform="rotate(-180 131 325)" fill="black"/>
<circle cx="130.869" cy="324.869" r="19.3717" transform="rotate(-180 130.869 324.869)" fill="#FFDC82"/>
<circle cx="130.869" cy="324.869" r="12.3037" transform="rotate(-180 130.869 324.869)" fill="#1AC120"/>
<circle cx="131" cy="325" r="6.15183" transform="rotate(-180 131 325)" fill="#E42430"/>
<circle cx="81" cy="275" r="25" transform="rotate(-180 81 275)" fill="black"/>
<circle cx="80.8691" cy="274.869" r="19.3717" transform="rotate(-180 80.8691 274.869)" fill="#FFDC82"/>
<circle cx="80.8691" cy="274.869" r="12.3037" transform="rotate(-180 80.8691 274.869)" fill="#1AC120"/>
<circle cx="81" cy="275" r="6.15183" transform="rotate(-180 81 275)" fill="#E42430"/>
<circle cx="31" cy="225" r="25" transform="rotate(-180 31 225)" fill="black"/>
<circle cx="30.8691" cy="224.869" r="19.3717" transform="rotate(-180 30.8691 224.869)" fill="#FFDC82"/>
<circle cx="30.8691" cy="224.869" r="12.3037" transform="rotate(-180 30.8691 224.869)" fill="#1AC120"/>
<circle cx="31" cy="225" r="6.15183" transform="rotate(-180 31 225)" fill="#E42430"/>
<circle cx="631" cy="975" r="25" transform="rotate(-180 631 975)" fill="black"/>
<circle cx="630.869" cy="974.869" r="19.3717" transform="rotate(-180 630.869 974.869)" fill="#FFDC82"/>
<circle cx="630.869" cy="974.869" r="12.3037" transform="rotate(-180 630.869 974.869)" fill="#1AC120"/>
<circle cx="631" cy="975" r="6.15183" transform="rotate(-180 631 975)" fill="#E42430"/>
<circle cx="581" cy="925" r="25" transform="rotate(-180 581 925)" fill="black"/>
<circle cx="580.869" cy="924.869" r="19.3717" transform="rotate(-180 580.869 924.869)" fill="#FFDC82"/>
<circle cx="580.869" cy="924.869" r="12.3037" transform="rotate(-180 580.869 924.869)" fill="#1AC120"/>
<circle cx="581" cy="925" r="6.15183" transform="rotate(-180 581 925)" fill="#E42430"/>
<circle cx="531" cy="875" r="25" transform="rotate(-180 531 875)" fill="black"/>
<circle cx="530.869" cy="874.869" r="19.3717" transform="rotate(-180 530.869 874.869)" fill="#FFDC82"/>
<circle cx="530.869" cy="874.869" r="12.3037" transform="rotate(-180 530.869 874.869)" fill="#1AC120"/>
<circle cx="531" cy="875" r="6.15183" transform="rotate(-180 531 875)" fill="#E42430"/>
<circle cx="481" cy="825" r="25" transform="rotate(-180 481 825)" fill="black"/>
<circle cx="480.869" cy="824.869" r="19.3717" transform="rotate(-180 480.869 824.869)" fill="#FFDC82"/>
<circle cx="480.869" cy="824.869" r="12.3037" transform="rotate(-180 480.869 824.869)" fill="#1AC120"/>
<circle cx="481" cy="825" r="6.15183" transform="rotate(-180 481 825)" fill="#E42430"/>
<circle cx="431" cy="775" r="25" transform="rotate(-180 431 775)" fill="black"/>
<circle cx="430.869" cy="774.869" r="19.3717" transform="rotate(-180 430.869 774.869)" fill="#FFDC82"/>
<circle cx="430.869" cy="774.869" r="12.3037" transform="rotate(-180 430.869 774.869)" fill="#1AC120"/>
<circle cx="431" cy="775" r="6.15183" transform="rotate(-180 431 775)" fill="#E42430"/>
<circle cx="381" cy="725" r="25" transform="rotate(-180 381 725)" fill="black"/>
<circle cx="380.869" cy="724.869" r="19.3717" transform="rotate(-180 380.869 724.869)" fill="#FFDC82"/>
<circle cx="380.869" cy="724.869" r="12.3037" transform="rotate(-180 380.869 724.869)" fill="#1AC120"/>
<circle cx="381" cy="725" r="6.15183" transform="rotate(-180 381 725)" fill="#E42430"/>
<circle cx="331" cy="675" r="25" transform="rotate(-180 331 675)" fill="black"/>
<circle cx="330.869" cy="674.869" r="19.3717" transform="rotate(-180 330.869 674.869)" fill="#FFDC82"/>
<circle cx="330.869" cy="674.869" r="12.3037" transform="rotate(-180 330.869 674.869)" fill="#1AC120"/>
<circle cx="331" cy="675" r="6.15183" transform="rotate(-180 331 675)" fill="#E42430"/>
<circle cx="281" cy="625" r="25" transform="rotate(-180 281 625)" fill="black"/>
<circle cx="280.869" cy="624.869" r="19.3717" transform="rotate(-180 280.869 624.869)" fill="#FFDC82"/>
<circle cx="280.869" cy="624.869" r="12.3037" transform="rotate(-180 280.869 624.869)" fill="#1AC120"/>
<circle cx="281" cy="625" r="6.15183" transform="rotate(-180 281 625)" fill="#E42430"/>
<circle cx="231" cy="575" r="25" transform="rotate(-180 231 575)" fill="black"/>
<circle cx="230.869" cy="574.869" r="19.3717" transform="rotate(-180 230.869 574.869)" fill="#FFDC82"/>
<circle cx="230.869" cy="574.869" r="12.3037" transform="rotate(-180 230.869 574.869)" fill="#1AC120"/>
<circle cx="231" cy="575" r="6.15183" transform="rotate(-180 231 575)" fill="#E42430"/>
<circle cx="181" cy="525" r="25" transform="rotate(-180 181 525)" fill="black"/>
<circle cx="180.869" cy="524.869" r="19.3717" transform="rotate(-180 180.869 524.869)" fill="#FFDC82"/>
<circle cx="180.869" cy="524.869" r="12.3037" transform="rotate(-180 180.869 524.869)" fill="#1AC120"/>
<circle cx="181" cy="525" r="6.15183" transform="rotate(-180 181 525)" fill="#E42430"/>
<circle cx="131" cy="475" r="25" transform="rotate(-180 131 475)" fill="black"/>
<circle cx="130.869" cy="474.869" r="19.3717" transform="rotate(-180 130.869 474.869)" fill="#FFDC82"/>
<circle cx="130.869" cy="474.869" r="12.3037" transform="rotate(-180 130.869 474.869)" fill="#1AC120"/>
<circle cx="131" cy="475" r="6.15183" transform="rotate(-180 131 475)" fill="#E42430"/>
<circle cx="81" cy="425" r="25" transform="rotate(-180 81 425)" fill="black"/>
<circle cx="80.8691" cy="424.869" r="19.3717" transform="rotate(-180 80.8691 424.869)" fill="#FFDC82"/>
<circle cx="80.8691" cy="424.869" r="12.3037" transform="rotate(-180 80.8691 424.869)" fill="#1AC120"/>
<circle cx="81" cy="425" r="6.15183" transform="rotate(-180 81 425)" fill="#E42430"/>
<circle cx="31" cy="375" r="25" transform="rotate(-180 31 375)" fill="black"/>
<circle cx="30.8691" cy="374.869" r="19.3717" transform="rotate(-180 30.8691 374.869)" fill="#FFDC82"/>
<circle cx="30.8691" cy="374.869" r="12.3037" transform="rotate(-180 30.8691 374.869)" fill="#1AC120"/>
<circle cx="31" cy="375" r="6.15183" transform="rotate(-180 31 375)" fill="#E42430"/>
<circle cx="581" cy="1075" r="25" transform="rotate(-180 581 1075)" fill="black"/>
<circle cx="580.869" cy="1074.87" r="19.3717" transform="rotate(-180 580.869 1074.87)" fill="#FFDC82"/>
<circle cx="580.869" cy="1074.87" r="12.3037" transform="rotate(-180 580.869 1074.87)" fill="#1AC120"/>
<circle cx="581" cy="1075" r="6.15183" transform="rotate(-180 581 1075)" fill="#E42430"/>
<circle cx="531" cy="1025" r="25" transform="rotate(-180 531 1025)" fill="black"/>
<circle cx="530.869" cy="1024.87" r="19.3717" transform="rotate(-180 530.869 1024.87)" fill="#FFDC82"/>
<circle cx="530.869" cy="1024.87" r="12.3037" transform="rotate(-180 530.869 1024.87)" fill="#1AC120"/>
<circle cx="531" cy="1025" r="6.15183" transform="rotate(-180 531 1025)" fill="#E42430"/>
<circle cx="431" cy="1075" r="25" transform="rotate(-180 431 1075)" fill="black"/>
<circle cx="430.869" cy="1074.87" r="19.3717" transform="rotate(-180 430.869 1074.87)" fill="#FFDC82"/>
<circle cx="430.869" cy="1074.87" r="12.3037" transform="rotate(-180 430.869 1074.87)" fill="#1AC120"/>
<circle cx="431" cy="1075" r="6.15183" transform="rotate(-180 431 1075)" fill="#E42430"/>
<circle cx="381" cy="1025" r="25" transform="rotate(-180 381 1025)" fill="black"/>
<circle cx="380.869" cy="1024.87" r="19.3717" transform="rotate(-180 380.869 1024.87)" fill="#FFDC82"/>
<circle cx="380.869" cy="1024.87" r="12.3037" transform="rotate(-180 380.869 1024.87)" fill="#1AC120"/>
<circle cx="381" cy="1025" r="6.15183" transform="rotate(-180 381 1025)" fill="#E42430"/>
<circle cx="281" cy="1075" r="25" transform="rotate(-180 281 1075)" fill="black"/>
<circle cx="280.869" cy="1074.87" r="19.3717" transform="rotate(-180 280.869 1074.87)" fill="#FFDC82"/>
<circle cx="280.869" cy="1074.87" r="12.3037" transform="rotate(-180 280.869 1074.87)" fill="#1AC120"/>
<circle cx="281" cy="1075" r="6.15183" transform="rotate(-180 281 1075)" fill="#E42430"/>
<circle cx="231" cy="1025" r="25" transform="rotate(-180 231 1025)" fill="black"/>
<circle cx="230.869" cy="1024.87" r="19.3717" transform="rotate(-180 230.869 1024.87)" fill="#FFDC82"/>
<circle cx="230.869" cy="1024.87" r="12.3037" transform="rotate(-180 230.869 1024.87)" fill="#1AC120"/>
<circle cx="231" cy="1025" r="6.15183" transform="rotate(-180 231 1025)" fill="#E42430"/>
<circle cx="131" cy="1075" r="25" transform="rotate(-180 131 1075)" fill="black"/>
<circle cx="130.869" cy="1074.87" r="19.3717" transform="rotate(-180 130.869 1074.87)" fill="#FFDC82"/>
<circle cx="130.869" cy="1074.87" r="12.3037" transform="rotate(-180 130.869 1074.87)" fill="#1AC120"/>
<circle cx="131" cy="1075" r="6.15183" transform="rotate(-180 131 1075)" fill="#E42430"/>
<circle cx="81" cy="1025" r="25" transform="rotate(-180 81 1025)" fill="black"/>
<circle cx="80.8691" cy="1024.87" r="19.3717" transform="rotate(-180 80.8691 1024.87)" fill="#FFDC82"/>
<circle cx="80.8691" cy="1024.87" r="12.3037" transform="rotate(-180 80.8691 1024.87)" fill="#1AC120"/>
<circle cx="81" cy="1025" r="6.15183" transform="rotate(-180 81 1025)" fill="#E42430"/>
<circle cx="481" cy="975" r="25" transform="rotate(-180 481 975)" fill="black"/>
<circle cx="480.869" cy="974.869" r="19.3717" transform="rotate(-180 480.869 974.869)" fill="#FFDC82"/>
<circle cx="480.869" cy="974.869" r="12.3037" transform="rotate(-180 480.869 974.869)" fill="#1AC120"/>
<circle cx="481" cy="975" r="6.15183" transform="rotate(-180 481 975)" fill="#E42430"/>
<circle cx="431" cy="925" r="25" transform="rotate(-180 431 925)" fill="black"/>
<circle cx="430.869" cy="924.869" r="19.3717" transform="rotate(-180 430.869 924.869)" fill="#FFDC82"/>
<circle cx="430.869" cy="924.869" r="12.3037" transform="rotate(-180 430.869 924.869)" fill="#1AC120"/>
<circle cx="431" cy="925" r="6.15183" transform="rotate(-180 431 925)" fill="#E42430"/>
<circle cx="381" cy="875" r="25" transform="rotate(-180 381 875)" fill="black"/>
<circle cx="380.869" cy="874.869" r="19.3717" transform="rotate(-180 380.869 874.869)" fill="#FFDC82"/>
<circle cx="380.869" cy="874.869" r="12.3037" transform="rotate(-180 380.869 874.869)" fill="#1AC120"/>
<circle cx="381" cy="875" r="6.15183" transform="rotate(-180 381 875)" fill="#E42430"/>
<circle cx="331" cy="825" r="25" transform="rotate(-180 331 825)" fill="black"/>
<circle cx="330.869" cy="824.869" r="19.3717" transform="rotate(-180 330.869 824.869)" fill="#FFDC82"/>
<circle cx="330.869" cy="824.869" r="12.3037" transform="rotate(-180 330.869 824.869)" fill="#1AC120"/>
<circle cx="331" cy="825" r="6.15183" transform="rotate(-180 331 825)" fill="#E42430"/>
<circle cx="281" cy="775" r="25" transform="rotate(-180 281 775)" fill="black"/>
<circle cx="280.869" cy="774.869" r="19.3717" transform="rotate(-180 280.869 774.869)" fill="#FFDC82"/>
<circle cx="280.869" cy="774.869" r="12.3037" transform="rotate(-180 280.869 774.869)" fill="#1AC120"/>
<circle cx="281" cy="775" r="6.15183" transform="rotate(-180 281 775)" fill="#E42430"/>
<circle cx="231" cy="725" r="25" transform="rotate(-180 231 725)" fill="black"/>
<circle cx="230.869" cy="724.869" r="19.3717" transform="rotate(-180 230.869 724.869)" fill="#FFDC82"/>
<circle cx="230.869" cy="724.869" r="12.3037" transform="rotate(-180 230.869 724.869)" fill="#1AC120"/>
<circle cx="231" cy="725" r="6.15183" transform="rotate(-180 231 725)" fill="#E42430"/>
<circle cx="181" cy="675" r="25" transform="rotate(-180 181 675)" fill="black"/>
<circle cx="180.869" cy="674.869" r="19.3717" transform="rotate(-180 180.869 674.869)" fill="#FFDC82"/>
<circle cx="180.869" cy="674.869" r="12.3037" transform="rotate(-180 180.869 674.869)" fill="#1AC120"/>
<circle cx="181" cy="675" r="6.15183" transform="rotate(-180 181 675)" fill="#E42430"/>
<circle cx="131" cy="625" r="25" transform="rotate(-180 131 625)" fill="black"/>
<circle cx="130.869" cy="624.869" r="19.3717" transform="rotate(-180 130.869 624.869)" fill="#FFDC82"/>
<circle cx="130.869" cy="624.869" r="12.3037" transform="rotate(-180 130.869 624.869)" fill="#1AC120"/>
<circle cx="131" cy="625" r="6.15183" transform="rotate(-180 131 625)" fill="#E42430"/>
<circle cx="81" cy="575" r="25" transform="rotate(-180 81 575)" fill="black"/>
<circle cx="80.8691" cy="574.869" r="19.3717" transform="rotate(-180 80.8691 574.869)" fill="#FFDC82"/>
<circle cx="80.8691" cy="574.869" r="12.3037" transform="rotate(-180 80.8691 574.869)" fill="#1AC120"/>
<circle cx="81" cy="575" r="6.15183" transform="rotate(-180 81 575)" fill="#E42430"/>
<circle cx="31" cy="525" r="25" transform="rotate(-180 31 525)" fill="black"/>
<circle cx="30.8691" cy="524.869" r="19.3717" transform="rotate(-180 30.8691 524.869)" fill="#FFDC82"/>
<circle cx="30.8691" cy="524.869" r="12.3037" transform="rotate(-180 30.8691 524.869)" fill="#1AC120"/>
<circle cx="31" cy="525" r="6.15183" transform="rotate(-180 31 525)" fill="#E42430"/>
<circle cx="331" cy="975" r="25" transform="rotate(-180 331 975)" fill="black"/>
<circle cx="330.869" cy="974.869" r="19.3717" transform="rotate(-180 330.869 974.869)" fill="#FFDC82"/>
<circle cx="330.869" cy="974.869" r="12.3037" transform="rotate(-180 330.869 974.869)" fill="#1AC120"/>
<circle cx="331" cy="975" r="6.15183" transform="rotate(-180 331 975)" fill="#E42430"/>
<circle cx="281" cy="925" r="25" transform="rotate(-180 281 925)" fill="black"/>
<circle cx="280.869" cy="924.869" r="19.3717" transform="rotate(-180 280.869 924.869)" fill="#FFDC82"/>
<circle cx="280.869" cy="924.869" r="12.3037" transform="rotate(-180 280.869 924.869)" fill="#1AC120"/>
<circle cx="281" cy="925" r="6.15183" transform="rotate(-180 281 925)" fill="#E42430"/>
<circle cx="231" cy="875" r="25" transform="rotate(-180 231 875)" fill="black"/>
<circle cx="230.869" cy="874.869" r="19.3717" transform="rotate(-180 230.869 874.869)" fill="#FFDC82"/>
<circle cx="230.869" cy="874.869" r="12.3037" transform="rotate(-180 230.869 874.869)" fill="#1AC120"/>
<circle cx="231" cy="875" r="6.15183" transform="rotate(-180 231 875)" fill="#E42430"/>
<circle cx="181" cy="825" r="25" transform="rotate(-180 181 825)" fill="black"/>
<circle cx="180.869" cy="824.869" r="19.3717" transform="rotate(-180 180.869 824.869)" fill="#FFDC82"/>
<circle cx="180.869" cy="824.869" r="12.3037" transform="rotate(-180 180.869 824.869)" fill="#1AC120"/>
<circle cx="181" cy="825" r="6.15183" transform="rotate(-180 181 825)" fill="#E42430"/>
<circle cx="131" cy="775" r="25" transform="rotate(-180 131 775)" fill="black"/>
<circle cx="130.869" cy="774.869" r="19.3717" transform="rotate(-180 130.869 774.869)" fill="#FFDC82"/>
<circle cx="130.869" cy="774.869" r="12.3037" transform="rotate(-180 130.869 774.869)" fill="#1AC120"/>
<circle cx="131" cy="775" r="6.15183" transform="rotate(-180 131 775)" fill="#E42430"/>
<circle cx="81" cy="725" r="25" transform="rotate(-180 81 725)" fill="black"/>
<circle cx="80.8691" cy="724.869" r="19.3717" transform="rotate(-180 80.8691 724.869)" fill="#FFDC82"/>
<circle cx="80.8691" cy="724.869" r="12.3037" transform="rotate(-180 80.8691 724.869)" fill="#1AC120"/>
<circle cx="81" cy="725" r="6.15183" transform="rotate(-180 81 725)" fill="#E42430"/>
<circle cx="31" cy="675" r="25" transform="rotate(-180 31 675)" fill="black"/>
<circle cx="30.8691" cy="674.869" r="19.3717" transform="rotate(-180 30.8691 674.869)" fill="#FFDC82"/>
<circle cx="30.8691" cy="674.869" r="12.3037" transform="rotate(-180 30.8691 674.869)" fill="#1AC120"/>
<circle cx="31" cy="675" r="6.15183" transform="rotate(-180 31 675)" fill="#E42430"/>
<circle cx="181" cy="975" r="25" transform="rotate(-180 181 975)" fill="black"/>
<circle cx="180.869" cy="974.869" r="19.3717" transform="rotate(-180 180.869 974.869)" fill="#FFDC82"/>
<circle cx="180.869" cy="974.869" r="12.3037" transform="rotate(-180 180.869 974.869)" fill="#1AC120"/>
<circle cx="181" cy="975" r="6.15183" transform="rotate(-180 181 975)" fill="#E42430"/>
<circle cx="131" cy="925" r="25" transform="rotate(-180 131 925)" fill="black"/>
<circle cx="130.869" cy="924.869" r="19.3717" transform="rotate(-180 130.869 924.869)" fill="#FFDC82"/>
<circle cx="130.869" cy="924.869" r="12.3037" transform="rotate(-180 130.869 924.869)" fill="#1AC120"/>
<circle cx="131" cy="925" r="6.15183" transform="rotate(-180 131 925)" fill="#E42430"/>
<circle cx="81" cy="875" r="25" transform="rotate(-180 81 875)" fill="black"/>
<circle cx="80.8691" cy="874.869" r="19.3717" transform="rotate(-180 80.8691 874.869)" fill="#FFDC82"/>
<circle cx="80.8691" cy="874.869" r="12.3037" transform="rotate(-180 80.8691 874.869)" fill="#1AC120"/>
<circle cx="81" cy="875" r="6.15183" transform="rotate(-180 81 875)" fill="#E42430"/>
<circle cx="31" cy="825" r="25" transform="rotate(-180 31 825)" fill="black"/>
<circle cx="30.8691" cy="824.869" r="19.3717" transform="rotate(-180 30.8691 824.869)" fill="#FFDC82"/>
<circle cx="30.8691" cy="824.869" r="12.3037" transform="rotate(-180 30.8691 824.869)" fill="#1AC120"/>
<circle cx="31" cy="825" r="6.15183" transform="rotate(-180 31 825)" fill="#E42430"/>
<circle cx="31" cy="975" r="25" transform="rotate(-180 31 975)" fill="black"/>
<circle cx="30.8691" cy="974.869" r="19.3717" transform="rotate(-180 30.8691 974.869)" fill="#FFDC82"/>
<circle cx="30.8691" cy="974.869" r="12.3037" transform="rotate(-180 30.8691 974.869)" fill="#1AC120"/>
<circle cx="31" cy="975" r="6.15183" transform="rotate(-180 31 975)" fill="#E42430"/>
</svg>
